<svg xmlns="http://www.w3.org/2000/svg" viewBox="0 0 158.17 147.97"><defs><style>.cls-1{fill:#001881;}.cls-2{fill:#e0040b;}.cls-3{fill:#bc0c24;}.cls-4{fill:#fff;}</style></defs><title>24hours</title><g id="Layer_2" data-name="Layer 2"><g id="Camada_1" data-name="Camada 1"><g id="_3" data-name="3"><path class="cls-1" d="M96.31,141.59A6.22,6.22,0,0,1,90.26,148H67.92a6.22,6.22,0,0,1-6.05-6.38h0a6.22,6.22,0,0,1,6.05-6.38H90.26a6.22,6.22,0,0,1,6.05,6.38Z"/><path class="cls-1" d="M9.57,98.54A9.33,9.33,0,0,1,0,89.46V56a9.33,9.33,0,0,1,9.57-9.08h0A9.33,9.33,0,0,1,19.13,56V89.46a9.33,9.33,0,0,1-9.57,9.08Z"/><path class="cls-1" d="M148.6,98.54A9.33,9.33,0,0,1,139,89.46V56a9.33,9.33,0,0,1,9.57-9.08h0A9.33,9.33,0,0,1,158.17,56V89.46a9.33,9.33,0,0,1-9.57,9.08Z"/><path class="cls-1" d="M79.09,0A72.79,72.79,0,0,0,6.38,72.71h6.38A66.33,66.33,0,1,1,79.09,139v6.38A72.71,72.71,0,0,0,79.09,0Z"/><circle class="cls-2" cx="79.09" cy="71.13" r="55.22"/><circle class="cls-2" cx="79.09" cy="72.33" r="55.22"/><path class="cls-3" d="M98.29,43.24,87.42,59.59l-15-15S62,40.31,52.72,43.8a20.1,20.1,0,0,0-9.31,8.49L54.67,63.55c-4.21.69-7.37,2.1-8.09,4.15-1.52,4.36-3.35,13.18-3.35,13.18l3.17,3.17-3.07,17.6,24.81,24.81a55.25,55.25,0,0,0,66.16-54.14c0-1.66-.09-3.3-.23-4.93L107.34,40.67Z"/><path class="cls-4" d="M46.44,83.86v7a4.63,4.63,0,0,1,3.92-1.88c3.56,0,5.14,2.42,5.14,6.1v6.61h-3.1V95.07c0-2.29-1.2-3.25-2.85-3.25a3.21,3.21,0,0,0-3.1,3.43v6.41h-3.1V83.86Z"/><path class="cls-4" d="M70.52,95.38A6.52,6.52,0,1,1,64,88.84,6.34,6.34,0,0,1,70.52,95.38Zm-9.94,0a3.42,3.42,0,1,0,6.81,0A3.54,3.54,0,0,0,64,91.67,3.44,3.44,0,0,0,60.58,95.38Z"/><path class="cls-4" d="M91.86,89.1l.23,1.45a3.7,3.7,0,0,1,3.53-1.78A4.76,4.76,0,0,1,98.85,90l-1.4,2.69a3.1,3.1,0,0,0-2.24-.81A2.89,2.89,0,0,0,92.09,95v6.61H89V89.1Z"/><path class="cls-4" d="M107.48,92.43a4.23,4.23,0,0,0-3.1-1.12c-1.48,0-2.29.46-2.29,1.25s.74,1.27,2.34,1.37c2.36.15,5.36.69,5.36,4,0,2.21-1.8,4.12-5.39,4.12a7.33,7.33,0,0,1-5.8-2.24l1.53-2.21a6.88,6.88,0,0,0,4.32,1.75c1.17,0,2.26-.59,2.26-1.5s-.71-1.22-2.49-1.32c-2.36-.18-5.19-1-5.19-3.89s3-3.91,5.29-3.91a6.74,6.74,0,0,1,4.88,1.65Z"/><path class="cls-4" d="M76.23,89.1v6.56c0,1.91,1,3.36,3,3.36a3.3,3.3,0,0,0,3.2-3.51V89.1h3.08v12.56H82.76l-.2-1.7a5.58,5.58,0,0,1-4.25,1.88c-3,0-5.19-2.26-5.19-6.15V89.1Z"/><path class="cls-4" d="M43.4,52.29c.06-8.51,8.11-12.2,15.54-12.2,8.05,0,16.8,3.28,16.8,12.83,0,10.24-7.71,12.2-16.17,12.2-3.34,0-8.75.86-8.75,5.24v3.45h25v7.08H43.23V70.29c0-9.26,8.4-12,16.34-12,3,0,8.63-.52,8.63-5.18,0-4.37-4-6.44-9.15-6.44-4,0-8.06,2-8.11,5.64Z"/><path class="cls-4" d="M107.34,40.67v25.2h4.72v7.36h-4.72v7.65H99.86V73.23H78.35l-.69-7.71L95.78,40.67Zm-7.48,25.2V47.22L86.23,65.86Z"/></g></g></g></svg>