<svg xmlns="http://www.w3.org/2000/svg" viewBox="0 0 250.49 66.65"><defs><style>.cls-1{fill:#bf0811;}.cls-2{fill:#fff;}</style></defs><title>frana-logo-b</title><g id="Camada_2" data-name="Camada 2"><g id="Camada_1-2" data-name="Camada 1"><path class="cls-1" d="M17.87,48.2l-1.26,2.95H9.41a11.46,11.46,0,0,1-2.86-.8,15.64,15.64,0,0,0-3.67-.27H2.53l.13-.37,3.4-.11a5.86,5.86,0,0,0,1.8-.51,5.88,5.88,0,0,1,1.78-.51Zm1.53-3.4-1.46,3.27H13.62a24.55,24.55,0,0,1-4.79-.67A27.45,27.45,0,0,0,4,46.67l.18-.37,3.24-.11a6.46,6.46,0,0,0,1.91-.51,6.52,6.52,0,0,1,1.89-.51Zm1.53-3.4-1.46,3.27-7.6-.32a4.13,4.13,0,0,1-1.47-.51,3.67,3.67,0,0,0-1.5-.48l-3.35-.05.14-.4,3.42-.11a5.5,5.5,0,0,0,1.72-.5,5.55,5.55,0,0,1,1.7-.5ZM22.44,38,21,41.29l-7.51-.35a16.94,16.94,0,0,1-2.41-.8,14.73,14.73,0,0,0-3.55-.27H7.07l.09-.4H8.87A9.13,9.13,0,0,0,11.41,39a10.69,10.69,0,0,1,2.52-.56ZM35,34.54,33.51,37.8l-18.63-.27a3.59,3.59,0,0,1-1.48-.48,4,4,0,0,0-1.46-.51l-3.35-.11.2-.37a33.36,33.36,0,0,0,4.27-.59,24.56,24.56,0,0,1,4.3-.54Zm1.51-3.4L35.1,34.35l-18.65-.21a14,14,0,0,1-3.19-.54A15.56,15.56,0,0,0,10.11,33l.13-.37a20,20,0,0,0,3.54-.55,20.15,20.15,0,0,1,3.54-.55ZM38,27.79,36.57,31l-18.74-.27a3.46,3.46,0,0,1-1.48-.51,3.45,3.45,0,0,0-1.46-.51l-3.28-.08.11-.35q2.29-.08,7.6-.83a59.78,59.78,0,0,1,7.6-.67Zm-9.49-3.43L27,27.65l-7.36-.29a4.62,4.62,0,0,1-1.6-.52,4.62,4.62,0,0,0-1.62-.52l-3.35-.08.18-.37,3.35-.11a6,6,0,0,0,1.8-.5,6.05,6.05,0,0,1,1.78-.5ZM41,20.9l-1.42,3.27H28.4q-2.83,0-6.86-.24a22.76,22.76,0,0,1-3.44-.59,19.67,19.67,0,0,0-3.46-.51l.18-.4a22.26,22.26,0,0,0,3.75-.55,22.33,22.33,0,0,1,3.75-.55Zm1.51-3.4-1.42,3.21-18.43-.19A14.87,14.87,0,0,1,19.4,20a16.53,16.53,0,0,0-3.26-.56l.18-.37A20.93,20.93,0,0,0,20,18.49a21,21,0,0,1,3.7-.56Zm1.26-2.92-1.19,2.76-18-.24a19.82,19.82,0,0,1-3.48-.54A19.77,19.77,0,0,0,17.65,16l.18-.4a22.32,22.32,0,0,0,3.64-.54,19,19,0,0,1,3.67-.51Z"/><path class="cls-1" d="M45,48.2l-1.31,2.95H37.31A7.68,7.68,0,0,1,35,50.61,8.6,8.6,0,0,0,32.68,50l-3-.05.13-.4,2,0a7.54,7.54,0,0,0,2.45-.51,10.26,10.26,0,0,1,2.45-.56Zm1.53-3.4-1.46,3.27-7.33-.35a4.72,4.72,0,0,1-1.6-.51,4.72,4.72,0,0,0-1.6-.51l-3.33-.13.11-.35h1l1,0a8.59,8.59,0,0,0,2.51-.55,9.62,9.62,0,0,1,2.44-.58Zm1.53-3.35-1.44,3.21-6.88-.32a5.92,5.92,0,0,1-1.71-.4q-1.37-.51-1.66-.59a19.71,19.71,0,0,0-3.08-.16h-.54l.18-.4,1.13,0,1.08,0a8.16,8.16,0,0,0,2.44-.55,9,9,0,0,1,2.4-.58Zm15.61-.13q-.88,0-2.29,0l-2.29.05A26.49,26.49,0,0,1,54,40.64a31.46,31.46,0,0,0-5.13-.8l-.68,1.42q-.81,0-2.2,0h-.5a24.46,24.46,0,0,1-5.26-.43,59,59,0,0,0-6-1l.25-.4a20.77,20.77,0,0,0,3.44-.48,30.25,30.25,0,0,1,3.42-.56l8.41-.54-.7,1.61a20,20,0,0,0,3.39-.5,23.3,23.3,0,0,1,3.3-.52l7-.35Zm1.17-6.67a21.55,21.55,0,0,1-2.72,1.77l.45,1.5-20-.37A16.84,16.84,0,0,1,39.2,37a19.68,19.68,0,0,0-3.37-.62l.16-.29a23.27,23.27,0,0,0,3.46-.56A18.87,18.87,0,0,1,42.91,35Zm3.35-3.38q-2.38,3.3-3.24,3.27l-20.59-.4a18.77,18.77,0,0,1-3.55-.58A18.83,18.83,0,0,0,37.35,33l.18-.37a19.18,19.18,0,0,0,3.36-.52,19.33,19.33,0,0,1,3.41-.52Zm1.94-3.4a11.9,11.9,0,0,1-1.87,3.27L45,30.68a14.44,14.44,0,0,1-3.07-.56,14.47,14.47,0,0,0-3-.56l.16-.37a17.12,17.12,0,0,0,3.33-.48,19.22,19.22,0,0,1,3.33-.51Zm-14.29-3.7-1.66,3.72-7.83-.67a3.51,3.51,0,0,1-1.28-.47,3.53,3.53,0,0,0-1.3-.47l-3.37-.11.11-.35,2.38-.05a8.69,8.69,0,0,0,2.36-.43A11.55,11.55,0,0,1,47,24.81Zm15.57-1.63a7.26,7.26,0,0,1-.18,1.77l-22.9-.4a16.13,16.13,0,0,1-3.22-.59,12.64,12.64,0,0,0-3.22-.51l.14-.4a23.68,23.68,0,0,0,3.78-.52,23.93,23.93,0,0,1,3.76-.52l21.8-.27Zm-.07-1.61L50.25,20.5A18.33,18.33,0,0,1,46.83,20a21,21,0,0,0-3.37-.58l.16-.35a20.9,20.9,0,0,0,3.51-.52A21.07,21.07,0,0,1,50.65,18l19.82-.29A11,11,0,0,1,71.39,20.93Zm-1-3.38L52,17.15a5.8,5.8,0,0,1-1.81-.52,5.86,5.86,0,0,0-1.81-.52L45,16l.18-.37a23.62,23.62,0,0,0,4-.51,23.75,23.75,0,0,1,4-.51H63.83Q68.78,14.58,70.36,17.55ZM64.83,44.71q-.7,0-3.82,0a31.05,31.05,0,0,1-5.65-.7,45.9,45.9,0,0,0-5.58-.8l.13-.32a14.38,14.38,0,0,0,3.65-.48,17.3,17.3,0,0,1,2.86-.56l7.36-.37Zm1.12,3.38q-.47,0-3.31,0H61a28.23,28.23,0,0,1-5.2-.67,34.69,34.69,0,0,0-5.17-.78l.13-.35,3.46-.08a4.36,4.36,0,0,0,1.61-.47,5,5,0,0,1,1.59-.5l7.47-.37Zm1,3.05H58a4,4,0,0,1-1.56-.48,4.49,4.49,0,0,0-1.54-.51L51.46,50l.18-.37,3.42-.05a4.13,4.13,0,0,0,1.57-.47,4.66,4.66,0,0,1,1.55-.5L66,48.25Zm4.32-26.71a10.43,10.43,0,0,1-1,3.32l-7.54-.37a9.74,9.74,0,0,1-2.27-.78,16,16,0,0,0-4-.37l.16-.35,2.32,0a7.54,7.54,0,0,0,2.29-.4,15.3,15.3,0,0,1,2.29-.7Z"/><path class="cls-1" d="M75.92,48.2l-2.16,2.95H65.81a10.44,10.44,0,0,1-2.56-.78A16,16,0,0,0,59.43,50h-.36l.13-.37,3.53-.11a5.46,5.46,0,0,0,1.68-.48,5.47,5.47,0,0,1,1.68-.48Zm2.41-3.35L76,48.09l-7.87-.35a4.91,4.91,0,0,1-1.62-.51,4.93,4.93,0,0,0-1.64-.51l-3.19-.08.14-.37h1.06l1.06,0a8.48,8.48,0,0,0,2.5-.55,9.45,9.45,0,0,1,2.43-.58ZM81,41.21l-2.56,3.51-7.54-.37a10.78,10.78,0,0,1-2.68-.8,17.49,17.49,0,0,0-3.71-.27h-.34l.16-.4,3.35-.08a5.45,5.45,0,0,0,1.68-.48A5.49,5.49,0,0,1,71,41.82ZM99.31,38l-.45,3.24q-2.72,0-7.58.08-5.33.13-7.56.13A77,77,0,0,1,73,40.94q-2.09-.51-6.34-1.07l.18-.37A22.93,22.93,0,0,0,70.64,39a26,26,0,0,1,3.72-.56q5-.24,12.46-.27Zm.54-3.37-.49,3.27-22.61-.32A22.7,22.7,0,0,1,73,37.08a25.82,25.82,0,0,0-3.78-.59l.16-.43a21,21,0,0,0,3.59-.54A20.88,20.88,0,0,1,76.52,35Zm.5-3.43-.47,3.27L92,34.19a11.82,11.82,0,0,1-2.59-.51,13.6,13.6,0,0,0-2.59-.54l-1.19,1.63-7.9-.64q-2-.48-6-1l.16-.4a19.72,19.72,0,0,0,3.44-.52,19.93,19.93,0,0,1,3.42-.52l9.38-.32-.92,1.34h.43a9.91,9.91,0,0,0,2.55-.48,12.92,12.92,0,0,1,2.46-.54Zm.5-3.4-.45,3.27-7.31-.29a6.7,6.7,0,0,1-1.94-.51,6.72,6.72,0,0,0-1.91-.51l-1,1.37-7.67-.37a18.86,18.86,0,0,1-3.13-.56,16.37,16.37,0,0,0-3.19-.54l.16-.35a19.63,19.63,0,0,0,3.49-.54,22.37,22.37,0,0,1,3.46-.56l9.25-.37-.9,1.34a8,8,0,0,0,1.88-.5,6.9,6.9,0,0,1,1.88-.47Zm.54-3.37-.52,3.27-4.7-.08a14.43,14.43,0,0,1-4.63-.94l-.83,1L84,27.44a23.44,23.44,0,0,1-3.6-.59,20.37,20.37,0,0,0-3.6-.54l.18-.43a20.77,20.77,0,0,0,3.44-.48,23.79,23.79,0,0,1,3.42-.56l9.36-.56-.65,1A67.8,67.8,0,0,1,101.38,24.46Zm.49-3.43-.49,3.29q-1.58,0-4.25,0l-4.25.05q-6.3,0-8-.59a18.4,18.4,0,0,0-5.58-.91l.2-.4,3.44-.08a8.23,8.23,0,0,0,2.17-.52,8.23,8.23,0,0,1,2.17-.52Zm.5-3.37-.47,3.24q-1.33,0-3.62,0l-3.6.05q-5.56,0-7.22-.56a19.59,19.59,0,0,0-5.6-.94l.13-.35L85.21,19a9.21,9.21,0,0,0,2.26-.51A9.18,9.18,0,0,1,89.75,18ZM97.78,48.17l-.4,3H89.87a7,7,0,0,1-2.16-.5,7.84,7.84,0,0,0-2.11-.52L82.19,50l.16-.37H83.5l1.17.05A7.58,7.58,0,0,0,87,49.13a8.42,8.42,0,0,1,2.33-.59Zm.52-3.35L97.83,48l-8.73-.32a3.86,3.86,0,0,1-1.45-.52,3.45,3.45,0,0,0-1.45-.5l-3.28,0,.14-.4,3.46-.11a5.49,5.49,0,0,0,1.72-.5,5.55,5.55,0,0,1,1.7-.5Zm.54-3.4-.52,3.27L90,44.37a4.18,4.18,0,0,1-1.52-.52,3.73,3.73,0,0,0-1.52-.5l-3.31-.08.13-.37h1l1,0a8.53,8.53,0,0,0,2.46-.54,9.51,9.51,0,0,1,2.4-.56Zm4-26.84-.38,2.95-11.23-.32a13.55,13.55,0,0,1-2.62-.55,13.93,13.93,0,0,0-3.48-.55h-.7l.2-.38a47.05,47.05,0,0,0,5.2-.62A35.85,35.85,0,0,1,95,14.58Z"/><path class="cls-1" d="M111.76,48.2l-1.28,2.95h-6.7a10.63,10.63,0,0,1-3.42-.86A15,15,0,0,0,96.79,50h-.43l.13-.35,3.42-.08a5.55,5.55,0,0,0,1.71-.48,5.58,5.58,0,0,1,1.69-.48Zm1.53-3.37-1.48,3.24-7.54-.32a4.1,4.1,0,0,1-1.51-.52,4.1,4.1,0,0,0-1.51-.52l-3.33-.11.16-.35,1.15,0,1.1,0a7.54,7.54,0,0,0,2.32-.51,10.1,10.1,0,0,1,2.29-.62Q106.47,45,113.29,44.82Zm1.53-3.4-1.46,3.24-7.54-.35a5.68,5.68,0,0,1-1.6-.51,15.85,15.85,0,0,0-4.75-.59l.11-.35a15.69,15.69,0,0,0,3.71-.51,19.45,19.45,0,0,1,3.22-.59ZM134.88,38l-1.48,3.29L121.63,41a14.3,14.3,0,0,1-3-.56,14.32,14.32,0,0,0-3-.56l-.7,1.42-7.78-.37a18.16,18.16,0,0,1-3-.55,15.94,15.94,0,0,0-3.08-.52l.2-.37a36.56,36.56,0,0,0,5.38-.78,30.76,30.76,0,0,1,5.38-.67l2.2,0q1.37,0,2.2,0l-.65,1.45h1.94a8.1,8.1,0,0,0,2.4-.54,9.07,9.07,0,0,1,2.37-.56Zm1.51-3.38-1.46,3.27q-4.25,0-12.71-.35a50.43,50.43,0,0,0-5.2-1l-.61,1.37-1.64.08a26.93,26.93,0,0,1-6.14-.67,43.29,43.29,0,0,0-6.12-.91l.11-.32a22.71,22.71,0,0,0,3.45-.55,22.79,22.79,0,0,1,3.43-.55l8.35-.32L117.27,36h.79a6.84,6.84,0,0,0,2.14-.51,7.68,7.68,0,0,1,2.12-.54Zm1.53-3.43-1.48,3.29-9-.05a34.63,34.63,0,0,1-8.91-1.23l-.61,1.26-7.63-.37a18.22,18.22,0,0,1-3.09-.56,16,16,0,0,0-3.14-.54l.16-.37a19.52,19.52,0,0,0,3.45-.52,22.53,22.53,0,0,1,3.39-.55l8.37-.4-.56,1.29.11,0a27.88,27.88,0,0,0,5.05-.68,28,28,0,0,1,5.07-.68q1.1,0,4.41.08Q136.26,31.24,137.92,31.21Zm1.48-3.37L138,31.05a68,68,0,0,1-10.3-1.21l.11,1.47-13.9-.51a29.19,29.19,0,0,1-4.16-.64,19.22,19.22,0,0,0-4.16-.56l.14-.37a21.6,21.6,0,0,0,3.57-.52,21.56,21.56,0,0,1,3.59-.52l14.69-.37.11,1.37a21.43,21.43,0,0,1,3.51-1Zm1.53-3.4-1.44,3.24-.09,0-7-.32a10.6,10.6,0,0,1-2.47-.52,10.72,10.72,0,0,0-2.5-.52l.11,1.34-14-.35a16.36,16.36,0,0,1-3.25-.56,16.53,16.53,0,0,0-3.23-.56l.11-.35a25.09,25.09,0,0,0,3.64-.56,21.86,21.86,0,0,1,3.67-.54l12.82-.32.11,1.37h.95a7.33,7.33,0,0,0,2.21-.5,8.31,8.31,0,0,1,2.15-.52Zm1.49-3.4L141,24.25,133.49,24a18.86,18.86,0,0,1-3.11-.55,16.55,16.55,0,0,0-3.15-.52l.07,1.39L115.72,24a19,19,0,0,1-3.54-.58,19,19,0,0,0-3.57-.58l.18-.37a19.44,19.44,0,0,0,3.4-.52,19.44,19.44,0,0,1,3.4-.52L127.05,21l.13,1.45a20.83,20.83,0,0,0,3.55-.52,24.17,24.17,0,0,1,3.49-.55Zm-15.37-.13h-5a37.18,37.18,0,0,1-5.94-.67,45.35,45.35,0,0,0-5.94-.78l.22-.46,2.14,0a7.4,7.4,0,0,0,2.42-.5,9,9,0,0,1,2.31-.55l9.61-.35Zm-.25-3.43-8.73-.35a4.89,4.89,0,0,1-1.63-.52,4.35,4.35,0,0,0-1.65-.5l-3.13-.05.18-.46,3.33-.05a8.27,8.27,0,0,0,2.27-.48,8.25,8.25,0,0,1,2.29-.48h6.86Zm6.53,23.95-1.39,3.24-9.9-.29a4.69,4.69,0,0,1-1.61-.52,4.69,4.69,0,0,0-1.63-.52l-3.4-.08.2-.4,3.31-.05a5,5,0,0,0,1.78-.48,5.7,5.7,0,0,1,1.75-.51Zm-1.51,3.43-1.46,3.21-8.08-.32a5,5,0,0,1-1.68-.54,4.43,4.43,0,0,0-1.7-.51l-3.31-.05.13-.37,3.4-.11a7,7,0,0,0,1.95-.5,7,7,0,0,1,1.95-.5Zm-1.51,3.38L129,51.14h-6a5.37,5.37,0,0,1-1.86-.5,6,6,0,0,0-1.83-.52L115.85,50l.16-.37,3.33-.08a6.12,6.12,0,0,0,1.83-.5,6.11,6.11,0,0,1,1.81-.5ZM144,17.61l-1.44,3.27h0l-7.24-.32a4.76,4.76,0,0,1-1.65-.54,4.28,4.28,0,0,0-1.68-.51l-3.35-.05.18-.4,3.49-.05a4.62,4.62,0,0,0,1.7-.48,5.19,5.19,0,0,1,1.65-.51Zm1.33-3L144,17.5q-.56,0-1.26,0H140.1a18.83,18.83,0,0,1-4.46-.48,25.2,25.2,0,0,0-5.49-.91l.16-.37,3.46-.13a10.16,10.16,0,0,0,2.36-.51,9,9,0,0,1,2.43-.48Z"/><path class="cls-1" d="M145.57,48.2l-2.16,2.95h-7.94a10.45,10.45,0,0,1-2.57-.78,16,16,0,0,0-3.82-.32h-.36l.14-.37,3.53-.11a5.45,5.45,0,0,0,1.68-.48,5.48,5.48,0,0,1,1.68-.48ZM148,44.85l-2.36,3.24-7.87-.35a4.91,4.91,0,0,1-1.62-.51,4.93,4.93,0,0,0-1.64-.51l-3.19-.08.13-.37h1.06l1.06,0a8.49,8.49,0,0,0,2.5-.55,9.45,9.45,0,0,1,2.43-.58Zm2.65-3.64-2.56,3.51-7.54-.37a10.79,10.79,0,0,1-2.68-.8,17.49,17.49,0,0,0-3.71-.27h-.34l.16-.4,3.35-.08A5.45,5.45,0,0,0,139,42.3a5.49,5.49,0,0,1,1.65-.48ZM169,38l-.45,3.24q-2.72,0-7.58.08-5.33.13-7.56.13a77,77,0,0,1-10.69-.56q-2.09-.51-6.34-1.07l.18-.37a22.92,22.92,0,0,0,3.77-.54,26,26,0,0,1,3.72-.56q5-.24,12.46-.27Zm.54-3.37-.5,3.27-22.61-.32a22.7,22.7,0,0,1-3.78-.54,25.81,25.81,0,0,0-3.78-.59l.16-.43a21,21,0,0,0,3.59-.54,20.88,20.88,0,0,1,3.59-.54Zm.5-3.43-.47,3.27-7.87-.32a11.81,11.81,0,0,1-2.59-.51,13.61,13.61,0,0,0-2.59-.54l-1.19,1.63-7.9-.64q-2-.48-6-1l.16-.4a19.74,19.74,0,0,0,3.44-.52,19.92,19.92,0,0,1,3.42-.52l9.38-.32-.92,1.34h.43a9.9,9.9,0,0,0,2.55-.48,12.92,12.92,0,0,1,2.46-.54Zm.5-3.4L170,31.11l-7.31-.29a6.69,6.69,0,0,1-1.93-.51,6.72,6.72,0,0,0-1.91-.51l-1,1.37-7.67-.37a18.87,18.87,0,0,1-3.13-.56,16.36,16.36,0,0,0-3.19-.54l.16-.35a19.62,19.62,0,0,0,3.49-.54,22.37,22.37,0,0,1,3.46-.56l9.25-.37-.9,1.34a8,8,0,0,0,1.88-.5,6.91,6.91,0,0,1,1.88-.47Zm.54-3.37-.52,3.27-4.7-.08a14.43,14.43,0,0,1-4.63-.94l-.83,1-6.71-.29a23.47,23.47,0,0,1-3.6-.59,20.36,20.36,0,0,0-3.6-.54l.18-.43a20.76,20.76,0,0,0,3.44-.48,23.82,23.82,0,0,1,3.42-.56l9.36-.56-.65,1A67.8,67.8,0,0,1,171,24.46Zm.5-3.43-.5,3.29q-1.57,0-4.25,0l-4.25.05q-6.3,0-8-.59a18.4,18.4,0,0,0-5.58-.91l.2-.4,3.44-.08a8.24,8.24,0,0,0,2.17-.52,8.23,8.23,0,0,1,2.17-.52Zm.49-3.37-.47,3.24q-1.33,0-3.62,0l-3.6.05q-5.56,0-7.22-.56a19.58,19.58,0,0,0-5.6-.94l.13-.35,3.22-.11a9.22,9.22,0,0,0,2.26-.51,9.18,9.18,0,0,1,2.28-.51Zm-4.59,30.51-.41,3h-7.51a7,7,0,0,1-2.16-.5,7.85,7.85,0,0,0-2.12-.52l-3.4-.11.16-.37h1.15l1.17.05a7.58,7.58,0,0,0,2.37-.56,8.42,8.42,0,0,1,2.33-.59Zm.52-3.35L167.48,48l-8.73-.32a3.86,3.86,0,0,1-1.45-.52,3.45,3.45,0,0,0-1.45-.5l-3.28,0,.13-.4,3.46-.11a5.5,5.5,0,0,0,1.72-.5,5.55,5.55,0,0,1,1.7-.5Zm.54-3.4L168,44.69l-8.35-.32a4.18,4.18,0,0,1-1.52-.52,3.73,3.73,0,0,0-1.52-.5l-3.31-.08.13-.37h1l1,0a8.53,8.53,0,0,0,2.46-.54,9.51,9.51,0,0,1,2.4-.56Zm4-26.84-.38,2.95-11.23-.32a13.54,13.54,0,0,1-2.62-.55,13.94,13.94,0,0,0-3.48-.55h-.7l.2-.38a47.07,47.07,0,0,0,5.2-.62,35.86,35.86,0,0,1,5.22-.54Z"/><path class="cls-2" d="M5.9,63.79h-2l-.37-8.42L1.9,63.79H0L2.14,53.71h3l.31,7.06L9,53.71h3L9.86,63.79H7.93l2-8.36Z"/><path class="cls-2" d="M13.47,56.49h2l-.92,4.32a6.67,6.67,0,0,0-.17,1,.72.72,0,0,0,.24.54.84.84,0,0,0,.61.23,1.45,1.45,0,0,0,.52-.1,2.27,2.27,0,0,0,.53-.3,2.84,2.84,0,0,0,.49-.46,3,3,0,0,0,.41-.69,6.43,6.43,0,0,0,.29-1l.74-3.48h2l-1.55,7.3H16.8l.21-1A3.84,3.84,0,0,1,14.33,64a2,2,0,0,1-1.44-.52,1.85,1.85,0,0,1-.52-1.38,9.21,9.21,0,0,1,.24-1.51Z"/><path class="cls-2" d="M27.54,63.79h-1.9l.17-.79a3.68,3.68,0,0,1-1.07.74,3,3,0,0,1-1.19.22,2.43,2.43,0,0,1-1.87-.77A3.25,3.25,0,0,1,21,60.9a5.34,5.34,0,0,1,1-3.17,3.12,3.12,0,0,1,2.67-1.42,2.49,2.49,0,0,1,2.25,1.17l.8-3.77h2Zm-4.64-3A1.75,1.75,0,0,0,23.3,62a1.29,1.29,0,0,0,1,.44,1.63,1.63,0,0,0,1-.37A2.48,2.48,0,0,0,26.07,61a4.12,4.12,0,0,0,.28-1.45,1.85,1.85,0,0,0-.43-1.28,1.31,1.31,0,0,0-1-.49,1.66,1.66,0,0,0-1.45,1A4,4,0,0,0,22.9,60.82Z"/><path class="cls-2" d="M32.26,58.56l-2-.17a2.91,2.91,0,0,1,1.17-1.53,4,4,0,0,1,2.21-.55,3.29,3.29,0,0,1,2.12.57,1.74,1.74,0,0,1,.69,1.38,4.46,4.46,0,0,1-.06.7q-.06.37-.42,2a9.88,9.88,0,0,0-.29,1.83,3.71,3.71,0,0,0,.17,1h-2a3.74,3.74,0,0,1-.15-.82,3.08,3.08,0,0,1-1,.74,2.79,2.79,0,0,1-1.15.26,2,2,0,0,1-2.13-2.12,2.19,2.19,0,0,1,.66-1.67,3.89,3.89,0,0,1,2.36-.76,9.53,9.53,0,0,0,1.92-.28,2.4,2.4,0,0,0,.13-.66.66.66,0,0,0-.26-.53,1.19,1.19,0,0,0-.77-.21,1.46,1.46,0,0,0-.85.22A1.08,1.08,0,0,0,32.26,58.56Zm1.91,1.83-.48.09a4.64,4.64,0,0,0-2,.52.79.79,0,0,0-.33.67.77.77,0,0,0,.25.58.93.93,0,0,0,.66.24,1.78,1.78,0,0,0,.86-.22,1.5,1.5,0,0,0,.6-.56,3.75,3.75,0,0,0,.35-1.06Z"/><path class="cls-2" d="M39,56.49h1.9l-.2.95A5.24,5.24,0,0,1,42,56.58a3.36,3.36,0,0,1,1.3-.26,2,2,0,0,1,1.44.52,1.82,1.82,0,0,1,.53,1.37,8.49,8.49,0,0,1-.23,1.46l-.87,4.13h-2l.88-4.14a8.94,8.94,0,0,0,.2-1.11.78.78,0,0,0-.23-.59.88.88,0,0,0-.63-.22,1.79,1.79,0,0,0-1,.36,2.55,2.55,0,0,0-.85,1,8,8,0,0,0-.5,1.74l-.64,3h-2Z"/><path class="cls-2" d="M51.18,61l2,.31a4,4,0,0,1-1.43,1.94,3.7,3.7,0,0,1-2.19.67,3,3,0,0,1-2.25-.83,3.09,3.09,0,0,1-.83-2.29,5.16,5.16,0,0,1,.5-2.25,3.81,3.81,0,0,1,1.52-1.67,4.25,4.25,0,0,1,2.22-.61,3.11,3.11,0,0,1,2.1.67,2.54,2.54,0,0,1,.88,1.77l-1.91.2a1.4,1.4,0,0,0-.38-.9,1.15,1.15,0,0,0-.81-.29,1.65,1.65,0,0,0-1.08.43,2.68,2.68,0,0,0-.77,1.27,5.28,5.28,0,0,0-.27,1.59,1.42,1.42,0,0,0,.32,1,1,1,0,0,0,.8.35,1.51,1.51,0,0,0,.93-.34A2.23,2.23,0,0,0,51.18,61ZM47.5,66.63l.34-.8h.4a3.9,3.9,0,0,0,1.14-.17,1,1,0,0,0,.46-.24.45.45,0,0,0,.12-.29.42.42,0,0,0-.19-.34,1.06,1.06,0,0,0-.63-.14,4.5,4.5,0,0,0-.63.06l.24-.68a3.89,3.89,0,0,1,.92-.12,1.78,1.78,0,0,1,1.16.33,1,1,0,0,1,.4.8,1.22,1.22,0,0,1-.62,1,4.17,4.17,0,0,1-2.43.61A6.22,6.22,0,0,1,47.5,66.63Z"/><path class="cls-2" d="M56.95,58.56l-2-.17a2.91,2.91,0,0,1,1.17-1.53,4,4,0,0,1,2.21-.55,3.29,3.29,0,0,1,2.12.57,1.74,1.74,0,0,1,.69,1.38,4.46,4.46,0,0,1-.06.7q-.06.37-.42,2a9.88,9.88,0,0,0-.29,1.83,3.71,3.71,0,0,0,.17,1h-2a3.74,3.74,0,0,1-.15-.82,3.08,3.08,0,0,1-1,.74,2.79,2.79,0,0,1-1.15.26,2,2,0,0,1-2.13-2.12,2.19,2.19,0,0,1,.66-1.67,3.89,3.89,0,0,1,2.36-.76,9.53,9.53,0,0,0,1.92-.28,2.4,2.4,0,0,0,.13-.66.66.66,0,0,0-.26-.53,1.19,1.19,0,0,0-.77-.21,1.46,1.46,0,0,0-.85.22A1.08,1.08,0,0,0,56.95,58.56Zm1.91,1.83-.48.09a4.64,4.64,0,0,0-2,.52.79.79,0,0,0-.33.67.77.77,0,0,0,.25.58.93.93,0,0,0,.66.24,1.78,1.78,0,0,0,.86-.22,1.5,1.5,0,0,0,.6-.56,3.75,3.75,0,0,0,.35-1.06Z"/><path class="cls-2" d="M61.82,61.75l1.94-.3a1.85,1.85,0,0,0,.64.86,1.9,1.9,0,0,0,1,.25,1.82,1.82,0,0,0,1.1-.3.61.61,0,0,0,.29-.5.51.51,0,0,0-.15-.36,2.56,2.56,0,0,0-.83-.37,9.07,9.07,0,0,1-2.25-.93,1.7,1.7,0,0,1-.68-1.4,2,2,0,0,1,.66-1.49,4.74,4.74,0,0,1,4.89-.36,2.24,2.24,0,0,1,.93,1.4l-1.85.32a1.12,1.12,0,0,0-.48-.6A2.06,2.06,0,0,0,66,57.68a1.54,1.54,0,0,0-.91.21.59.59,0,0,0-.28.47.53.53,0,0,0,.28.45,6.67,6.67,0,0,0,1.13.38,6,6,0,0,1,2,.83,1.72,1.72,0,0,1,.7,1.37A2.31,2.31,0,0,1,68,63.2a3.73,3.73,0,0,1-2.5.76A4.49,4.49,0,0,1,63,63.38,2.88,2.88,0,0,1,61.82,61.75Z"/><path class="cls-2" d="M82.12,59.4l1.45.85a7.07,7.07,0,0,1-.53.83,4.58,4.58,0,0,1-.6.7,11.84,11.84,0,0,0,1,.93L82.19,64a3.9,3.9,0,0,1-.61-.42A6.81,6.81,0,0,1,81,63a4.36,4.36,0,0,1-1.27.65,5,5,0,0,1-1.64.26,3.58,3.58,0,0,1-2.5-.83,2.64,2.64,0,0,1-.91-2A2.9,2.9,0,0,1,75,59.68a3.78,3.78,0,0,1,.93-1.12,8.49,8.49,0,0,1,1.34-.83A4.1,4.1,0,0,1,76.83,56a2.32,2.32,0,0,1,.79-1.78,3,3,0,0,1,2.07-.72,2.54,2.54,0,0,1,1.75.57,1.75,1.75,0,0,1,.65,1.34,2.44,2.44,0,0,1-.56,1.41,5,5,0,0,1-1.83,1.39q.4.66,1,1.51a6.29,6.29,0,0,0,.57.75A6.75,6.75,0,0,0,82.12,59.4ZM78,59.12a2,2,0,0,0-1.38,1.79A1.39,1.39,0,0,0,77,62a1.5,1.5,0,0,0,1.1.41,3.15,3.15,0,0,0,1.71-.57A17.38,17.38,0,0,1,78,59.12Zm1-2.21a3.49,3.49,0,0,0,1.16-.83,1,1,0,0,0,.24-.61.61.61,0,0,0-.19-.46.74.74,0,0,0-.53-.18.94.94,0,0,0-.7.29,1,1,0,0,0-.28.75A2.52,2.52,0,0,0,79,56.92Z"/><path class="cls-2" d="M92.83,63.79H90.72l1.79-8.39h-3l.36-1.68h8.08l-.36,1.68h-3Z"/><path class="cls-2" d="M98.29,56.49h1.87l-.3,1.42a2.87,2.87,0,0,1,2.27-1.59,2.36,2.36,0,0,1,.93.21l-.77,1.61a1.75,1.75,0,0,0-.58-.1,1.8,1.8,0,0,0-1.05.38,2.58,2.58,0,0,0-.84,1,10.07,10.07,0,0,0-.59,2l-.49,2.29h-2Z"/><path class="cls-2" d="M105.26,58.56l-2-.17a2.91,2.91,0,0,1,1.17-1.53,4,4,0,0,1,2.21-.55,3.29,3.29,0,0,1,2.12.57,1.74,1.74,0,0,1,.69,1.38,4.46,4.46,0,0,1-.06.7q-.06.37-.42,2a9.88,9.88,0,0,0-.29,1.83,3.71,3.71,0,0,0,.17,1h-2a3.74,3.74,0,0,1-.15-.82,3.08,3.08,0,0,1-1,.74,2.79,2.79,0,0,1-1.15.26,2,2,0,0,1-2.13-2.12,2.19,2.19,0,0,1,.66-1.67,3.89,3.89,0,0,1,2.36-.76,9.53,9.53,0,0,0,1.92-.28,2.4,2.4,0,0,0,.13-.66.66.66,0,0,0-.26-.53,1.19,1.19,0,0,0-.77-.21,1.46,1.46,0,0,0-.85.22A1.08,1.08,0,0,0,105.26,58.56Zm1.91,1.83-.48.09a4.64,4.64,0,0,0-2,.52.79.79,0,0,0-.33.67.77.77,0,0,0,.25.58.93.93,0,0,0,.66.24,1.78,1.78,0,0,0,.86-.22,1.5,1.5,0,0,0,.6-.56,3.75,3.75,0,0,0,.35-1.06Z"/><path class="cls-2" d="M112,56.49h1.9l-.2.95a5.24,5.24,0,0,1,1.33-.86,3.36,3.36,0,0,1,1.3-.26,2,2,0,0,1,1.44.52,1.82,1.82,0,0,1,.53,1.37,8.49,8.49,0,0,1-.23,1.46l-.87,4.13h-2l.88-4.14a8.94,8.94,0,0,0,.2-1.11.78.78,0,0,0-.23-.59.88.88,0,0,0-.63-.22,1.79,1.79,0,0,0-1,.36,2.55,2.55,0,0,0-.85,1,8,8,0,0,0-.5,1.74l-.64,3h-2Z"/><path class="cls-2" d="M118.88,61.75l1.94-.3a1.85,1.85,0,0,0,.64.86,1.9,1.9,0,0,0,1,.25,1.82,1.82,0,0,0,1.1-.3.61.61,0,0,0,.29-.5.51.51,0,0,0-.15-.36,2.56,2.56,0,0,0-.83-.37,9.07,9.07,0,0,1-2.25-.93,1.7,1.7,0,0,1-.68-1.4,2,2,0,0,1,.66-1.49,4.74,4.74,0,0,1,4.89-.36,2.25,2.25,0,0,1,.93,1.4l-1.85.32a1.12,1.12,0,0,0-.48-.6,2.06,2.06,0,0,0-1.08-.27,1.54,1.54,0,0,0-.91.21.59.59,0,0,0-.28.47.53.53,0,0,0,.28.45,6.67,6.67,0,0,0,1.13.38,6,6,0,0,1,2,.83,1.72,1.72,0,0,1,.7,1.37,2.31,2.31,0,0,1-.89,1.8,3.73,3.73,0,0,1-2.5.76,4.49,4.49,0,0,1-2.49-.58A2.88,2.88,0,0,1,118.88,61.75Z"/><path class="cls-2" d="M128.6,56.49h1.9l-.16.75a4.52,4.52,0,0,1,1.14-.71,3,3,0,0,1,1.14-.21,2.4,2.4,0,0,1,1.88.79,3.43,3.43,0,0,1,.71,2.36A4.81,4.81,0,0,1,134,62.8,3.24,3.24,0,0,1,131.5,64a2.48,2.48,0,0,1-2.23-1.17l-.8,3.79h-2Zm1.21,4.19a1.91,1.91,0,0,0,.42,1.32,1.3,1.3,0,0,0,1,.47,1.56,1.56,0,0,0,1-.35,2.56,2.56,0,0,0,.77-1.17,4.4,4.4,0,0,0,.3-1.52,1.79,1.79,0,0,0-.4-1.25,1.31,1.31,0,0,0-1-.44,1.57,1.57,0,0,0-1,.4,2.58,2.58,0,0,0-.73,1.18A4.44,4.44,0,0,0,129.81,60.67Z"/><path class="cls-2" d="M136.16,60.76a4.46,4.46,0,0,1,1.17-3.23,4.06,4.06,0,0,1,3.06-1.21,3.55,3.55,0,0,1,2.57.89,3.17,3.17,0,0,1,.92,2.39,4.45,4.45,0,0,1-1.15,3.07A3.94,3.94,0,0,1,139.63,64a4.06,4.06,0,0,1-1.86-.41,2.72,2.72,0,0,1-1.21-1.17A3.41,3.41,0,0,1,136.16,60.76Zm5.72-1.41a1.53,1.53,0,0,0-.42-1.12,1.44,1.44,0,0,0-1.07-.42,1.82,1.82,0,0,0-1.15.4,2.54,2.54,0,0,0-.78,1.15,4,4,0,0,0-.28,1.38A1.74,1.74,0,0,0,138.6,62a1.43,1.43,0,0,0,1.09.46,1.71,1.71,0,0,0,1.38-.69A3.68,3.68,0,0,0,141.88,59.35Z"/><path class="cls-2" d="M146.05,56.49h1.88l-.3,1.42a2.87,2.87,0,0,1,2.27-1.59,2.36,2.36,0,0,1,.93.21l-.77,1.61a1.75,1.75,0,0,0-.58-.1,1.8,1.8,0,0,0-1.05.38,2.59,2.59,0,0,0-.84,1,10.07,10.07,0,0,0-.59,2l-.49,2.29h-2Z"/><path class="cls-2" d="M150.69,58l.31-1.46h1l.25-1.17,2.3-1.36L154,56.49h1.22L154.9,58h-1.23L153,61a9.51,9.51,0,0,0-.17.95.44.44,0,0,0,.15.35.83.83,0,0,0,.53.13l.67,0-.32,1.46a5.38,5.38,0,0,1-1.06.1,2.4,2.4,0,0,1-1.55-.4,1.37,1.37,0,0,1-.48-1.12,10.38,10.38,0,0,1,.26-1.55l.62-2.93Z"/><path class="cls-2" d="M162.19,60.75h-5c0,.08,0,.14,0,.18a1.64,1.64,0,0,0,.42,1.18,1.37,1.37,0,0,0,1,.45,1.72,1.72,0,0,0,1.56-1l1.8.29A3.6,3.6,0,0,1,158.59,64a3.21,3.21,0,0,1-3.37-3.4,4.43,4.43,0,0,1,.85-2.67,3.84,3.84,0,0,1,3.29-1.58,2.89,2.89,0,0,1,2.17.83,3.19,3.19,0,0,1,.8,2.32A5.39,5.39,0,0,1,162.19,60.75Zm-1.69-1.2c0-.09,0-.15,0-.2a1.75,1.75,0,0,0-.37-1.22,1.28,1.28,0,0,0-1-.41,1.59,1.59,0,0,0-1.12.46,2.44,2.44,0,0,0-.67,1.36Z"/><path class="cls-2" d="M162.67,61.75l1.95-.3a1.84,1.84,0,0,0,.64.86,1.89,1.89,0,0,0,1,.25,1.82,1.82,0,0,0,1.1-.3.6.6,0,0,0,.29-.5.51.51,0,0,0-.15-.36,2.56,2.56,0,0,0-.83-.37,9.06,9.06,0,0,1-2.25-.93,1.7,1.7,0,0,1-.68-1.4,2,2,0,0,1,.66-1.49,4.74,4.74,0,0,1,4.89-.36,2.24,2.24,0,0,1,.93,1.4l-1.85.32a1.13,1.13,0,0,0-.48-.6,2.06,2.06,0,0,0-1.08-.27,1.54,1.54,0,0,0-.91.21.59.59,0,0,0-.28.47.53.53,0,0,0,.28.45,6.69,6.69,0,0,0,1.13.38,6,6,0,0,1,2,.83,1.72,1.72,0,0,1,.7,1.37,2.31,2.31,0,0,1-.89,1.8,3.73,3.73,0,0,1-2.5.76,4.49,4.49,0,0,1-2.49-.58A2.88,2.88,0,0,1,162.67,61.75Z"/><path class="cls-2" d="M185.71,31.46l-.39.66a4.57,4.57,0,0,1-1,.52,8.8,8.8,0,0,0-2.47,2.1,5.63,5.63,0,0,1-2.34,1.83q-.09,0-.44.37a2.68,2.68,0,0,1-.81.59,4.14,4.14,0,0,0-1.16,1,5.3,5.3,0,0,1-1.07,1,2.86,2.86,0,0,0-.81,1.35,3.52,3.52,0,0,1-1.87,1.53.79.79,0,0,0-.17.57q0,1.88,1.53,1.88a1.42,1.42,0,0,0,.44-.09,7.9,7.9,0,0,1,1.2-.2,2.82,2.82,0,0,0,1.29-.37A2.2,2.2,0,0,1,178.9,44h.17l.92.09,3-.61.61-.26,1.44.09a2.23,2.23,0,0,0,1.07-.37,4.2,4.2,0,0,1,1-.46.25.25,0,0,1,.17-.09l1.18.09,1.53-.52,2.05-.26a24.54,24.54,0,0,1,2.88-.09,12.4,12.4,0,0,1,1.57.17.59.59,0,0,0,.39.09q.17,0,1-.13a10.21,10.21,0,0,1,1.55-.13q3,0,3.23,1.35l1,2a4,4,0,0,1,.57,1.4v.39l-.22.61.09.61q0,1.35-.61,1.57a2.37,2.37,0,0,0-.87.48h-.09a2.61,2.61,0,0,1-2.18-1.62l-.52.22-.79-.31a2.11,2.11,0,0,1-1.09.22,3.61,3.61,0,0,1-1.27-.74h-.17a2.38,2.38,0,0,0-.74.17,2.39,2.39,0,0,1-.66.17,1.24,1.24,0,0,1-.37-.13,1.17,1.17,0,0,0-.46-.13,9,9,0,0,0-1.88.52l-6.07,1-1.09-.17a3.71,3.71,0,0,0-2.14.66,1.4,1.4,0,0,1-.61.31L181,49.81l-6.41,1.09c-.17,0-.4-.1-.68-.39s-.47-.44-.59-.44a2.88,2.88,0,0,0-.3.72,1,1,0,0,1-1,.63,4.31,4.31,0,0,1-3-1,.6.6,0,0,0-.39-.09l-.87-.22a2.75,2.75,0,0,0-.44-.87l-.39-1.18-.52-.87a3.85,3.85,0,0,1-.44-2q0-3.67,1.25-4.83a5,5,0,0,0,1.33-1.55,18.63,18.63,0,0,1,4.24-4.63l1.88-1.88a1.55,1.55,0,0,1,.26-.2q.17-.11,1.55-1.25t2-1.57q.66-.44,1.88-1.4l2.1-1.57a25.19,25.19,0,0,1,4.41-3.06l.26-.26.92-.26.52-.57a2.76,2.76,0,0,1,1.7-.52l3.5-2.14,1.66-.66q.87-.44,1.94-1a9.5,9.5,0,0,1,2.29-.9l1.18-.48.87-.79a6.84,6.84,0,0,1,1.37-.68,6.34,6.34,0,0,0,1.57-.85,9.76,9.76,0,0,1,2-1.07,2,2,0,0,0,1.44-1.86q0-.83-.94-1a3.33,3.33,0,0,1-1.44-.48,2.23,2.23,0,0,0-.59-.35l-2.39.09-.57-.17A6.22,6.22,0,0,0,201,9.18a3.85,3.85,0,0,0-1.18.2,3.38,3.38,0,0,1-1,.2l-1.35-.39q-.44.13-2.32.92l-.39.09a1,1,0,0,1-.61.35l-1.14-.09-2,.92a4.4,4.4,0,0,1-1.25.7,3,3,0,0,0-.94.48,1.23,1.23,0,0,1-.74.31l-1.18-.35q-.26,0-.61.46c-.23.31-.44.46-.61.46q-1.88,0-1.88-3.67A4.11,4.11,0,0,1,185,7.1a3.24,3.24,0,0,1,2.25-1.38l3.41-.48q.17,0,1.18.17h.17l1.18-.61a2.87,2.87,0,0,1,.7-.17l1.35.09,3.19-.44,3.8.39Q204,4.9,204.5,5l.87.09q1.79,0,4.1,3.5a11.61,11.61,0,0,0,1.16,1.53,4.75,4.75,0,0,1,1,3.15,3.54,3.54,0,0,1-1,2.14l-.17.52a16.09,16.09,0,0,1-1.42,2,3.64,3.64,0,0,1-2.78,1.75l-.92-.09a.68.68,0,0,0-.61.26L201.52,22a9.41,9.41,0,0,1-2.23,1.36l-.61.44-.83.17a5.42,5.42,0,0,0-.87.9q-.7.81-1.09.81l-1.18-.09q-.52,0-1.59,1a16.71,16.71,0,0,1-2.16,1.77l-.7.79-1.25.42a3.13,3.13,0,0,0-1.4.81,2.35,2.35,0,0,1-1.11.7Q185.8,31.29,185.71,31.46Z"/><path class="cls-2" d="M248.61.52l.61.7.61.44a2.42,2.42,0,0,1,.66,1.79q0,1.44-1.09,1.7a6.9,6.9,0,0,1-2.75.26l-.57.48a1.82,1.82,0,0,0-.87.52q-.92,1.27-1.7,1.27l-.92-.17a3.16,3.16,0,0,0-1,1.16,3.35,3.35,0,0,1-2,1.33,4.91,4.91,0,0,0-.59,1.11,1.77,1.77,0,0,1-1.53,1.07q-1.11.13-.85.39-.61.83-.87.83a1.42,1.42,0,0,0-1.25.7A4,4,0,0,1,233,15.38q-.35.52-1.11,1.44a3.73,3.73,0,0,0-.89,1.7,1.48,1.48,0,0,1-1.09,1.14q-.31,0-.76,1.11a3.48,3.48,0,0,1-1.77,1.77q-.83,1.7-1.31,1.7L225,23.6a3,3,0,0,1-.7,2.05l-.31.66a5.37,5.37,0,0,1-.7,1,.26.26,0,0,1,.17.09h.35a2.41,2.41,0,0,0,1.09-.26q.83-1.53,4.11-1.88l.35-.09q.13-.39,1.59-.63A7.59,7.59,0,0,0,233,24a6.41,6.41,0,0,1,2.34-.42l1.49-.17a6.74,6.74,0,0,1,1.62-.26.64.64,0,0,1,.42.26.69.69,0,0,0,.5.26,2.75,2.75,0,0,0,.79-.13,2.59,2.59,0,0,1,.7-.13c.14,0,.28.12.39.35l.17.17a1.41,1.41,0,0,1,.35-.26,6.93,6.93,0,0,0,1.27.57,8.06,8.06,0,0,1,2.34,2.45,7.65,7.65,0,0,1,1.68,4.67l.09.83a.79.79,0,0,1,.09.35,1.56,1.56,0,0,1-.22.68,4,4,0,0,0-.26,1.53q0,1.11-1.57,1.38a9.67,9.67,0,0,1-1.27,2.05l-.79,1.09-.66.26a2.69,2.69,0,0,0-1.16,1.33,5.83,5.83,0,0,1-1,1.53q-.48.46-1.46,1.53a9.77,9.77,0,0,1-1.51,1.42l-.48.44a5.52,5.52,0,0,1-2.93,1.62l.17.52q0,.35-.63.76a2.08,2.08,0,0,1-1.07.42l-.17-.09H232q-.17,0-.37.44t-1.35.85a14.84,14.84,0,0,0-2.18,1,5.21,5.21,0,0,1-1.66.66,14.84,14.84,0,0,0-2.43.74,3.38,3.38,0,0,1-1.79-.44H222a1.64,1.64,0,0,1-1,.44,2.46,2.46,0,0,1-.81-.22,7.46,7.46,0,0,0-1.4-.37,6.31,6.31,0,0,1-1.84-.68,8.16,8.16,0,0,0-1.46-.66.9.9,0,0,1-.63-.46,1.43,1.43,0,0,0-.59-.59A6.36,6.36,0,0,1,211,46a2.46,2.46,0,0,0-.59-1.42,4.29,4.29,0,0,1-.7-2.16q-.28-1.79-.28-2.05a16,16,0,0,1,.42-1.73,4.94,4.94,0,0,1,.81-1.94,6.94,6.94,0,0,0,.92-2.67,7.15,7.15,0,0,1,1.51-2.38,5.65,5.65,0,0,0,1.25-1.73,3.82,3.82,0,0,1,.46-.48,3.51,3.51,0,0,0,.72-1.25,1.6,1.6,0,0,1,1-1.07l.48-.26a9.82,9.82,0,0,1,.79-1.18q.09-1.22,2.32-3.5l.17-.44a4,4,0,0,1,2.45-1.62.5.5,0,0,0,.17-.35,5.46,5.46,0,0,0-.09-.7V19a2,2,0,0,1,1.07-1.81,8.16,8.16,0,0,0,1.86-1.49,13.21,13.21,0,0,1,1.71-1.55A4.78,4.78,0,0,0,228.51,13a3.34,3.34,0,0,1,.92-.87,3.06,3.06,0,0,0,1-1.14,3.45,3.45,0,0,1,1.18-1.25A6.82,6.82,0,0,0,233,8.5a3.49,3.49,0,0,1,1.57-1A2.29,2.29,0,0,0,236,6.36a1.18,1.18,0,0,1,1.14-.72l1.27-.39a1,1,0,0,0,.63-.63.86.86,0,0,1,.55-.59,5.58,5.58,0,0,1,2.34-1.68,4.4,4.4,0,0,0,1.51-.7,2.68,2.68,0,0,1,.74-.5A5.74,5.74,0,0,0,245,.66a2,2,0,0,1,.9-.35,7.58,7.58,0,0,0,1-.17A4,4,0,0,1,247.6,0,1.37,1.37,0,0,1,248.61.52ZM215.3,48l1.79-.09,1.31-.26a1.54,1.54,0,0,1,.57-.09,2.37,2.37,0,0,1,.74.13,2.07,2.07,0,0,0,.57.13,5.47,5.47,0,0,0,2.63-1.14l1.53-.74a2.87,2.87,0,0,1,2.41-1.14q.88-.39,1-1a3.67,3.67,0,0,1,.83-.35,8.16,8.16,0,0,0,1.42-1.14,20.37,20.37,0,0,1,2.34-1.81,11.17,11.17,0,0,0,2.19-1.94,12.34,12.34,0,0,1,1.36-1.4,7.12,7.12,0,0,0,1.81-1.11,1.49,1.49,0,0,0,.2-.85,7.62,7.62,0,0,0,1.51-1.49,10.44,10.44,0,0,1,1.16-1.35l.39-.7a1.05,1.05,0,0,1,.7-.66l.09-.17v-.7a3.66,3.66,0,0,0,.87-1.53q0-.52-1.66-1a2,2,0,0,1-.74.39l-.79-.39h-.09l-1.44.26L237,27.7a1.32,1.32,0,0,0-.81.33,1.32,1.32,0,0,1-.81.33,1.1,1.1,0,0,0-.74.26.88.88,0,0,1-.48.26l-1.09-.35q-.74.79-1.14.79a5.64,5.64,0,0,0-.66-.35q-1,1.14-1.44,1.14a2.42,2.42,0,0,1-.61-.35q-1.23,0-1.47.37a1.12,1.12,0,0,1-.46.46A.58.58,0,0,0,227,31q-1.14.7-1.18.74l-.88-.09q-.18,0-1,1t-1,1l-1-.57a11,11,0,0,0-1.55,1.77A3.29,3.29,0,0,1,219.21,36a5.3,5.3,0,0,0-1.51,1.62.51.51,0,0,0-.35-.17q-.26,0-.44.52c0-.2,0-.23-.11-.09a6.67,6.67,0,0,0-.28.72,3.51,3.51,0,0,1-.44.87,3.25,3.25,0,0,0-.44,1.07l-.35.83a4.74,4.74,0,0,0-.42.94,4.91,4.91,0,0,1-.5,1.07,4.32,4.32,0,0,0-.44,1.57l-.44.79a2.16,2.16,0,0,0,.72,1.75Q214.95,48.07,215.3,48Z"/><path class="cls-1" d="M192.6,60.63l.24-.21a.24.24,0,0,0,.27-.2.48.48,0,0,1,.32-.32,1.23,1.23,0,0,0,.51-.48q.24-.36.49-.36c.06,0,.13,0,.21.15a.44.44,0,0,1,.12.24,2,2,0,0,1-.3,1l-.06.42-.1.19a.65.65,0,0,0-.29.25,1.07,1.07,0,0,1-.35.33l-.15.21a.68.68,0,0,0-.44.34.42.42,0,0,1-.31.27.8.8,0,0,0-.44.3,2,2,0,0,1-.36.13l0,.15a1.06,1.06,0,0,1-.47.24,2.62,2.62,0,0,0-.48.17.6.6,0,0,1-.22.08,1.21,1.21,0,0,1-.52-.11,1.61,1.61,0,0,0-.49-.14.34.34,0,0,1-.1-.19.66.66,0,0,0-.15-.28.73.73,0,0,1-.13-.47l.06-.28a.26.26,0,0,0-.07-.15.26.26,0,0,1-.08-.15.12.12,0,0,1,0-.09.12.12,0,0,0,0-.09.53.53,0,0,0,0-.16.46.46,0,0,1,0-.15l.09-.73c0-.06,0-.09-.06-.09s-.11,0-.22.15a.51.51,0,0,1-.36.15.68.68,0,0,0-.19.37,1.32,1.32,0,0,1-.3.27l-.06.09c0,.07-.09.13-.22.17a.52.52,0,0,0-.27.17l-.15.15-.28,0a2.28,2.28,0,0,0-.16.26,1.18,1.18,0,0,1-.34.38l-1.13.92c-.12.08-.29.18-.52.3l-.09.09a3.91,3.91,0,0,1-1.68.79,2.48,2.48,0,0,1-.94-.22q-.54-.22-.58-.54l-.15-.61a1.07,1.07,0,0,1-.13-.58.61.61,0,0,1,0-.24V62.4l0-.49c0-.12.09-.18.28-.18l0-.4a2.12,2.12,0,0,1,.26-.47,2.08,2.08,0,0,1,.35-.47l.15-.19a.49.49,0,0,1,.21-.38,2,2,0,0,0,.36-.41,1.84,1.84,0,0,1,.51-.46l.45-.45a4.53,4.53,0,0,1,1.13-.83,1.48,1.48,0,0,0,.37-.3,1.74,1.74,0,0,1,.63-.39,4.26,4.26,0,0,0,.69-.32,1.17,1.17,0,0,1,.53-.19h.12a6,6,0,0,0,.79-.37h.09a.93.93,0,0,1,.28.12h0l.24-.12a.33.33,0,0,1,.15,0q.92,0,1,1.28c0,.18.07.27.15.27s.24-.18.42-.54a1.18,1.18,0,0,1,1.17-.54q.64,0,.64.82a2.57,2.57,0,0,1-.86,1.83,1,1,0,0,0-.09.27l-.21.61v0a.46.46,0,0,1-.13.25.47.47,0,0,0-.13.28l0,.37-.06.42a.49.49,0,0,0,.1.37,1.22,1.22,0,0,0,.69-.39,1,1,0,0,1,.3-.3l.15-.06A1.46,1.46,0,0,1,192.6,60.63Zm-4.94,0a.69.69,0,0,1,.37-.5.73.73,0,0,0,.36-.35,8,8,0,0,0,.81-.74q.53-.54.53-.65s0,0-.06,0h0l-.12.07-.27,0-.28,0-.21-.1-.19,0-.3-.06a.82.82,0,0,0-.41.1,3,3,0,0,1-.65.22,2.39,2.39,0,0,0-.87.41,1.18,1.18,0,0,1-.56.29,2.25,2.25,0,0,1-.7.64.69.69,0,0,0-.46.52c-.26.21-.39.33-.39.36l-.1.25a1,1,0,0,1-.3.17.34.34,0,0,0-.21.31.84.84,0,0,1-.2.45.58.58,0,0,0-.17.32q0,.73.28.73a1.8,1.8,0,0,0,.5-.16,2,2,0,0,0,.44-.22.65.65,0,0,1,.24-.12l.28-.15a.26.26,0,0,1,.13-.08.29.29,0,0,0,.15-.1,1,1,0,0,1,.27-.18.73.73,0,0,0,.3-.26l.82-.46.31-.24a1.08,1.08,0,0,0,.4-.25A.77.77,0,0,1,187.66,60.63Z"/><path class="cls-1" d="M207.43,61.55h.06l.15.06.06,0a.53.53,0,0,1,.24-.43.68.68,0,0,1,.33-.43l.83-.49.37-.33.18-.09.12-.15a.44.44,0,0,1,.31-.19c.15,0,.22.05.22.16l-.13.3.06.49a.69.69,0,0,1-.19.48l-.57.61-.76.8-.4.21a1.38,1.38,0,0,0-.27.21l-.58.49a.37.37,0,0,1-.13.31h-.24l-.12.06a1.21,1.21,0,0,1-.61.55l-.21.15a.31.31,0,0,1-.19.09l-.42-.06-.28.06a.69.69,0,0,1-.32-.12,2,2,0,0,0-.41-.19c-.14,0-.32-.23-.53-.55a2.59,2.59,0,0,1-.35-.63.58.58,0,0,0-.07-.2.68.68,0,0,1-.07-.17,1.87,1.87,0,0,1,.13-.3v0a.7.7,0,0,0-.08-.21.89.89,0,0,1-.08-.4.92.92,0,0,0-.09-.34c.08-.08.12-.14.12-.18a.49.49,0,0,0,0-.17.52.52,0,0,1,0-.17l.09-.73-.06-.37,0-.36c0-.21-.09-.31-.27-.31a.5.5,0,0,0-.3.16l-.1,0a3.46,3.46,0,0,0-.56.32.55.55,0,0,1-.34.13.84.84,0,0,1-.34.16l-.12.09-.24.18a3.38,3.38,0,0,1-.56.5q-.56.45-1,.86a1.75,1.75,0,0,1-.64.44c-.13,0-.2.15-.2.38,0,0-.09.12-.27.24a2,2,0,0,0-.31.33,1.3,1.3,0,0,0-.27-.18q-.19,0-.28.49-.09.19-.48.24a.63.63,0,0,0-.1.22l-.06.06h-.15a.81.81,0,0,0-.21.17.9.9,0,0,1-.31.22q-.19.4-.33.4a.4.4,0,0,1-.17-.06,1.38,1.38,0,0,0-.28-.1q-.16,0-.37-.36a1.08,1.08,0,0,1-.2-.54q0-1.65.64-1.8l0-.06v-.12a.28.28,0,0,1,.17-.28,1,1,0,0,0,.35-.33,1.19,1.19,0,0,1,.24-.28h.19s.06-.1.06-.31a.23.23,0,0,1,.07-.16.34.34,0,0,0,.09-.22,1.34,1.34,0,0,1,.22-.46,1.44,1.44,0,0,0,.2-.38l0-.06a1.45,1.45,0,0,1-.54.37q-.16,0-.45.43l-.24,0a5.79,5.79,0,0,1-.77.52.82.82,0,0,0-.33.34.12.12,0,0,1-.1.12,1.63,1.63,0,0,0-.39.24h-.09c-.25,0-.37-.18-.37-.54l.31-.85a1.25,1.25,0,0,1,.63-.68,7.65,7.65,0,0,0,.84-.53,1.25,1.25,0,0,1,.68-.27l.1-.15a1.14,1.14,0,0,0,.68-.61q.18-.42.49-.42a1.44,1.44,0,0,1,1.25.6,1.86,1.86,0,0,1,.43,1l0,.4a2.64,2.64,0,0,1-.09.58.86.86,0,0,0-.18.4c0,.08,0,.12.15.12a.43.43,0,0,0,.24-.13,2.08,2.08,0,0,1,.33-.23.49.49,0,0,0,.22-.18.85.85,0,0,1,.52-.49,1.49,1.49,0,0,0,.46-.22l.15-.12.12-.22a1.69,1.69,0,0,0,.54-.33.62.62,0,0,1,.36-.19,1.27,1.27,0,0,0,.51-.27l.22-.06.21-.12a.53.53,0,0,1,.18-.07l.44-.16a1.23,1.23,0,0,1,1.59.5,1.88,1.88,0,0,1,.44,1l0,.27.06.4v.06l-.12.82,0,.28a1.27,1.27,0,0,1-.3,1s-.07.07-.07.15v.13l.3.63c.09.22.16.33.21.33l.48-.13a.58.58,0,0,0,.34-.31,2.24,2.24,0,0,0,.42-.36C207.21,61.63,207.3,61.55,207.43,61.55Z"/><path class="cls-1" d="M217.92,62.92l-.7.61a.17.17,0,0,0-.12-.06c-.1,0-.22.09-.37.27s-.25.27-.3.27l-.15,0a2,2,0,0,1-.54.33,2.07,2.07,0,0,0-.39.16,1.13,1.13,0,0,1-.42.13.49.49,0,0,0-.3.13,1,1,0,0,1-.58.11l-.24,0a.83.83,0,0,1-.25.09.39.39,0,0,1-.25-.13.49.49,0,0,0-.29-.14.51.51,0,0,1-.32-.21,1.11,1.11,0,0,0-.3-.27.62.62,0,0,1-.23-.21l-.21-.18a1.76,1.76,0,0,1-.49-.65,1.84,1.84,0,0,1-.24-.74v-.06l0-.28,0-.33a1,1,0,0,0,.15-.25V61l.36-1.19s0-.11-.12-.19a.61.61,0,0,1-.3.27.3.3,0,0,0-.2.21c0,.11-.09.16-.17.16l-.18-.06a1.52,1.52,0,0,0-.13.3.37.37,0,0,1-.36.28q-.27,0-.27-.21l0-.27-.09-.37a1.18,1.18,0,0,1,.24-.47.91.91,0,0,1,.44-.4.58.58,0,0,0,.34-.28,2.19,2.19,0,0,1,.62-.56.74.74,0,0,0,.46-.39,1.69,1.69,0,0,1,.54-.27,1.06,1.06,0,0,0,.51-.3,4,4,0,0,1,1-.62,3.22,3.22,0,0,1,1.23-.42,1.13,1.13,0,0,0,.33-.07L216,56a1.68,1.68,0,0,0,.37-.16.68.68,0,0,1,.31-.11l.43.15a3.51,3.51,0,0,1,.58.19,1.52,1.52,0,0,0,.31.13,3.57,3.57,0,0,1,.57.26.64.64,0,0,1,.29.61,2.85,2.85,0,0,0-.25.4s.11.1.34.18.2.34.36.58l.16.52,0,1.22,0,.12q-.16.15-.16.19l0,.3-.12.42a.37.37,0,0,1-.15.25.27.27,0,0,0-.13.15l-.09.12a2.35,2.35,0,0,0-.13.26,1.09,1.09,0,0,1-.22.33.52.52,0,0,0-.15.28.34.34,0,0,1-.15.24.54.54,0,0,0-.17.16A.42.42,0,0,1,217.92,62.92Zm-4.62.39.06.34,0,0h.24l.07,0a2.45,2.45,0,0,0,.45.06,1.11,1.11,0,0,0,.73-.23.79.79,0,0,1,.44-.23c.11,0,.2-.07.27-.22s.12-.22.14-.22h.21l.06,0a.51.51,0,0,1,.3-.49.91.91,0,0,0,.43-.39,1.11,1.11,0,0,1,.29-.37.63.63,0,0,0,.22-.33l.12-.18a.32.32,0,0,0,.06-.22l.28-.54a2.64,2.64,0,0,0,.09-.58.54.54,0,0,0-.32-.49.73.73,0,0,1-.32-.7.82.82,0,0,1,.35-.63c.23-.19.35-.31.35-.35a.08.08,0,0,0-.09-.09,1.93,1.93,0,0,0-.34.12q-.1.21-1.05.55L216,58q-.09,0-.18.18a.79.79,0,0,1-.18.25h-.19s-.08.06-.19.19a.52.52,0,0,1-.42.19l-.18.18a.62.62,0,0,1-.3.49l-.16.19c-.1.12-.23.26-.39.42l-.27.67a1.69,1.69,0,0,0-.16.58.52.52,0,0,1-.2.19.28.28,0,0,0-.16.25s0,.07.1.15a.34.34,0,0,1,.1.18l-.06.19-.06.55Z"/><path class="cls-1" d="M223.55,57.37l.21-.37a1.91,1.91,0,0,1,.23-.28,1.92,1.92,0,0,0,.31-.73,2.11,2.11,0,0,1,.36-.81.75.75,0,0,1,.59-.22,1.26,1.26,0,0,1,.59.21,2.46,2.46,0,0,1,.71,1.3A5.93,5.93,0,0,1,226.9,58a1.34,1.34,0,0,0,.1.45,3.09,3.09,0,0,1,.13.42,1.62,1.62,0,0,0-.12.28l0,.61-.18.49v.36a1.19,1.19,0,0,0-.18.37.32.32,0,0,0,.06.18,2.54,2.54,0,0,0,.85-.48.64.64,0,0,1,.29-.23,1.57,1.57,0,0,0,.47-.39l.28-.15.25-.32a.6.6,0,0,1,.24-.2,1.51,1.51,0,0,0,.33-.21,4,4,0,0,1,.56-.34l.15-.18a1.67,1.67,0,0,1,.53-.4l.33-.15c.07,0,.14.09.22.27a1.44,1.44,0,0,1,.11.54.67.67,0,0,1-.29.5,4,4,0,0,0-.39.37,1,1,0,0,1-.48.21s-.18.21-.49.61l-.3.18-.15.19s-.15.08-.4.12c0,0,0,0-.07.15s-.14.17-.32.21a3.87,3.87,0,0,0-.55.55l-.31.06a1,1,0,0,1-.15.34q-.36.09-.4.3l-.15.06-.06,0a1.55,1.55,0,0,1-.67.33l-.34.09-.12.18s-.12.11-.36.19a1.37,1.37,0,0,0-.54.3l-.25.19a1.5,1.5,0,0,0-.58.33h-.21a1.42,1.42,0,0,0-.65.3,1.41,1.41,0,0,1-.71.31,2.27,2.27,0,0,1-1.18-.22,1.86,1.86,0,0,1-.53-.54,4.44,4.44,0,0,0-.38-.51.54.54,0,0,1-.17-.31.28.28,0,0,1,.14-.21,1.22,1.22,0,0,0,.3-.42q.16-.32.83-.41l.22-.09a.75.75,0,0,1,.3-.09c.1,0,.22.09.37.27,0,0,0,0,.06,0l.24,0a.52.52,0,0,0,.22.12,1.18,1.18,0,0,0,.76-.36l.06,0h.12s.08-.08.15-.25l.25-.52.52-.67v-.15a1.21,1.21,0,0,1,.09-.27v-.22c0-.09.06-.15.18-.17s.18-.09.18-.19l0-.12a.5.5,0,0,1-.12-.25l.15-.3,0-.31.06-.12a1.73,1.73,0,0,1-.06-.24l.06-.37-.08-.28c-.05-.18-.1-.27-.13-.27s-.25.15-.57.46a3,3,0,0,0-.57.65.82.82,0,0,1-.38.35.92.92,0,0,0-.39.35.39.39,0,0,1-.25.22l-1,.8-1.09.8c-.08.09-.13.13-.15.13q-.55,0-.55-.61a2.17,2.17,0,0,1,.22-.7l.16-.09.05,0h0l.09.06h0a4.71,4.71,0,0,1,.71-.43.62.62,0,0,0,.3-.33l.63-.45a8.69,8.69,0,0,0,.73-.65A4.31,4.31,0,0,0,223.55,57.37Z"/></g></g></svg>