<svg xmlns="http://www.w3.org/2000/svg" viewBox="0 0 52.69 34.91"><defs><style>.cls-1,.cls-4{fill:#002b72;}.cls-2{fill:#ed8a06;}.cls-3{fill:#e01619;}.cls-4,.cls-6{fill-rule:evenodd;}.cls-5,.cls-6{fill:#fff;}</style></defs><title>MasterCard</title><g id="Layer_2" data-name="Layer 2"><g id="Camada_1" data-name="Camada 1"><polygon class="cls-1" points="0 0 0 34.91 52.69 34.91 52.69 0 0 0 0 0"/><path class="cls-2" d="M21.89,17.46A13.44,13.44,0,1,1,35.34,30.9,13.44,13.44,0,0,1,21.89,17.46Z"/><path class="cls-3" d="M26.33,7.45a11.58,11.58,0,0,0-1.18,1.22h2.39a7.77,7.77,0,0,1,1.12,1.55H24s-.45.71-.75,1.31h6.18a9.2,9.2,0,0,1,.69,1.62H22.59a11.6,11.6,0,0,0-.37,1.27h8.23a14,14,0,0,1-.36,7.36H22.62a9.8,9.8,0,0,0,.52,1.33h6.42c-.26.54-.64,1.22-.85,1.56H24a11.1,11.1,0,0,0,.9,1.24h2.9a10.58,10.58,0,0,1-1.47,1.53h0a13.44,13.44,0,1,1,0-20Z"/><path class="cls-1" d="M19.7,15.55l-.22,1.21-1.18,0s-.59.16-.59.4.43.56,1.09.84.68,1.05.62,1.58-.16,1.62-2,1.68A4.89,4.89,0,0,1,15.7,21l.25-1.24s1.4.37,1.71.15.68-.59.09-.84-1.55-.65-1.55-1.64a1.8,1.8,0,0,1,1-1.83,4.76,4.76,0,0,1,2.48-.09Z"/><polygon class="cls-1" points="10.38 21.08 9.01 21.08 9.81 16.37 8.11 21.05 7.17 21.05 6.94 16.18 6.11 21.08 4.81 21.08 6.04 13.89 7.61 13.89 8.16 18.03 9.99 13.89 11.61 13.89 10.38 21.08 10.38 21.08"/><path class="cls-1" d="M20.93,21.18a1.34,1.34,0,0,1-1-.29,1.27,1.27,0,0,1-.29-.89,2.33,2.33,0,0,1,0-.29c0-.1,0-.22,0-.35l.82-4.6h1.29l-.19.9h1.2l-.2,1.14h-1.2l-.33,2c0,.13,0,.26-.06.4a2.32,2.32,0,0,0,0,.35.51.51,0,0,0,.12.4.54.54,0,0,0,.37.12,1,1,0,0,0,.26,0,1.46,1.46,0,0,0,.26-.12h.11L22,21a2.39,2.39,0,0,1-.46.11,3.1,3.1,0,0,1-.57,0Z"/><path class="cls-1" d="M30.15,17.18a.69.69,0,0,0-1,.27l-.62,3.63H27.22l.92-5.42h1.29l0,.44a1.4,1.4,0,0,1,1.21-.43,5.83,5.83,0,0,0-.45,1.51Z"/><path class="cls-1" d="M32.58,21.23a2,2,0,0,1-1.66-.72,3.16,3.16,0,0,1-.58-2.06,6.76,6.76,0,0,1,.25-1.92A4.93,4.93,0,0,1,31.31,15a3.31,3.31,0,0,1,1.06-1,2.58,2.58,0,0,1,1.3-.35,3.36,3.36,0,0,1,1,.16c.16.05.45.19.45.19l-.3,1.71a2.25,2.25,0,0,0-.45-.45,1.44,1.44,0,0,0-.78-.23A1.5,1.5,0,0,0,32.3,16a4.19,4.19,0,0,0-.52,2.21,2.16,2.16,0,0,0,.29,1.25,1,1,0,0,0,.83.37,1.74,1.74,0,0,0,.92-.26,4.13,4.13,0,0,0,.4-.29l-.3,1.63-.23.1c-.18.07-.34.11-.48.16a3.3,3.3,0,0,1-.63.06Z"/><path class="cls-1" d="M13.55,20.89l-.15.1a3.3,3.3,0,0,1-.37.17,2,2,0,0,1-.49.06,1,1,0,0,1-.81-.37,1.52,1.52,0,0,1-.32-1,2.45,2.45,0,0,1,.22-1.1,1.7,1.7,0,0,1,.67-.71,2.87,2.87,0,0,1,1-.36l.27,0a6.87,6.87,0,0,1,1-.11.38.38,0,0,1,0-.1.59.59,0,0,0,0-.14.53.53,0,0,0-.23-.49,1.51,1.51,0,0,0-.7-.13h-.06a2.3,2.3,0,0,0-.64.14,5.42,5.42,0,0,0-.57.25h-.12l.19-1.28a4.27,4.27,0,0,1,.69-.17,2.4,2.4,0,0,1,.45-.07,2.8,2.8,0,0,1,.49,0,2.35,2.35,0,0,1,1.38.33,1.19,1.19,0,0,1,.44,1,2.24,2.24,0,0,1,0,.25c0,.1,0,.19,0,.27l-.63,3.69H13.91l.1-.58-.29.26-.17.13Zm0-2.25a1.71,1.71,0,0,0-.35.11.74.74,0,0,0-.33.3.94.94,0,0,0-.12.52.46.46,0,0,0,.15.39.75.75,0,0,0,.45.12.54.54,0,0,0,.2,0l.2-.07a2.88,2.88,0,0,0,.4-.3l.19-1.15c-.22,0-.45.06-.64.1l-.16,0Z"/><path class="cls-1" d="M24.66,16.6a.77.77,0,0,0-.46.26,2,2,0,0,0-.41.81h1.73c0-.06,0-.1,0-.16s0-.1,0-.14a.9.9,0,0,0-.18-.59.63.63,0,0,0-.5-.2l-.2,0Zm0,3.4h.19a1.72,1.72,0,0,0,.8-.19,3.51,3.51,0,0,0,.65-.43h.15l-.24,1.4a3.07,3.07,0,0,1-.79.33,3.17,3.17,0,0,1-.76.12h-.12A2,2,0,0,1,23,20.61a2.39,2.39,0,0,1-.55-1.69,4.93,4.93,0,0,1,.18-1.36,3.56,3.56,0,0,1,.52-1.1,2.56,2.56,0,0,1,.82-.72,2.7,2.7,0,0,1,.73-.24H25a1.74,1.74,0,0,1,1.35.49,2.06,2.06,0,0,1,.45,1.44,4.54,4.54,0,0,1,0,.65c0,.2-.07.42-.13.62h-3v.12a1.27,1.27,0,0,0,.3.88,1.05,1.05,0,0,0,.7.32Z"/><path class="cls-1" d="M36.71,20.89l-.16.1a2.59,2.59,0,0,1-.37.17,2,2,0,0,1-.48.06,1,1,0,0,1-.82-.37,1.52,1.52,0,0,1-.31-1,2.45,2.45,0,0,1,.23-1.1,1.74,1.74,0,0,1,.66-.71,2.84,2.84,0,0,1,1-.36l.27,0a6.66,6.66,0,0,1,1-.11s0-.06,0-.1,0-.09,0-.14a.55.55,0,0,0-.23-.49,1.51,1.51,0,0,0-.7-.13h-.06a2.14,2.14,0,0,0-.64.14,5.51,5.51,0,0,0-.57.25h-.12l.18-1.28a4.18,4.18,0,0,1,.7-.17,2.39,2.39,0,0,1,.45-.07,2.73,2.73,0,0,1,.49,0,2.35,2.35,0,0,1,1.38.33,1.22,1.22,0,0,1,.43,1,2.08,2.08,0,0,1,0,.25l0,.27-.63,3.69H37.07l.1-.58-.3.26-.16.13Zm0-2.25a2.07,2.07,0,0,0-.36.11.81.81,0,0,0-.33.3,1.05,1.05,0,0,0-.12.52.44.44,0,0,0,.16.39.71.71,0,0,0,.43.12.6.6,0,0,0,.21,0L36.9,20a2.32,2.32,0,0,0,.4-.3l.2-1.15c-.23,0-.45.06-.65.1a.46.46,0,0,0-.15,0Z"/><path class="cls-1" d="M42.13,17.18a.69.69,0,0,0-1,.27l-.62,3.63H39.19l.92-5.42H41.4l0,.44a1.4,1.4,0,0,1,1.21-.43,5.76,5.76,0,0,0-.45,1.51Z"/><path class="cls-4" d="M44.66,16.81a.93.93,0,0,0-.18.12,1.49,1.49,0,0,0-.42.49,2.85,2.85,0,0,0-.23.74,4,4,0,0,0-.1.85,1.19,1.19,0,0,0,.17.71.59.59,0,0,0,.51.23.57.57,0,0,0,.25-.06l.12-.06a2.07,2.07,0,0,0,.36-.25l.46-2.67a1,1,0,0,0-.28-.12.76.76,0,0,0-.29-.06,1,1,0,0,0-.37.07Zm0,4a2.1,2.1,0,0,1-.32.24,1.79,1.79,0,0,1-.31.14,1.45,1.45,0,0,1-.37,0,1.09,1.09,0,0,1-.94-.51,2.69,2.69,0,0,1-.34-1.46,5.36,5.36,0,0,1,.18-1.46,4.39,4.39,0,0,1,.5-1.2,2.68,2.68,0,0,1,.74-.81,1.63,1.63,0,0,1,.85-.3h0a1.69,1.69,0,0,1,.57.09,1.9,1.9,0,0,1,.5.29L46.06,14h1.28l-1.18,7.09H44.88l.1-.56-.32.27Z"/><path class="cls-5" d="M20,15.35l-.22,1.21-1.18,0s-.59.15-.59.4.43.56,1.09.84.68,1.05.62,1.58-.15,1.62-2,1.68A4.89,4.89,0,0,1,16,20.84l.25-1.24s1.4.37,1.71.15.68-.59.09-.84-1.55-.65-1.55-1.64a1.8,1.8,0,0,1,1-1.83A4.75,4.75,0,0,1,20,15.35Z"/><polygon class="cls-5" points="10.64 20.89 9.27 20.89 10.07 16.17 8.37 20.86 7.43 20.86 7.2 15.99 6.37 20.89 5.07 20.89 6.29 13.69 7.87 13.69 8.42 17.84 10.25 13.69 11.86 13.69 10.64 20.89 10.64 20.89"/><path class="cls-5" d="M21.19,21a1.33,1.33,0,0,1-1-.29,1.25,1.25,0,0,1-.29-.89,2.38,2.38,0,0,1,0-.29c0-.1,0-.21,0-.35l.82-4.6h1.29l-.19.9h1.2l-.2,1.14h-1.2l-.33,2-.06.4a2.41,2.41,0,0,0,0,.35.51.51,0,0,0,.12.4.53.53,0,0,0,.37.12,1.06,1.06,0,0,0,.25,0,1.47,1.47,0,0,0,.27-.12h.11l-.2,1.15a2.35,2.35,0,0,1-.46.11,3.26,3.26,0,0,1-.57,0Z"/><path class="cls-5" d="M30.41,17a.69.69,0,0,0-1,.27l-.62,3.63H27.48l.92-5.42h1.28l0,.44a1.39,1.39,0,0,1,1.2-.43A5.86,5.86,0,0,0,30.41,17Z"/><path class="cls-5" d="M32.84,21a2,2,0,0,1-1.66-.72,3.16,3.16,0,0,1-.59-2.06,6.75,6.75,0,0,1,.26-1.92,5,5,0,0,1,.71-1.48,3.33,3.33,0,0,1,1.07-1,2.56,2.56,0,0,1,1.29-.35,3.35,3.35,0,0,1,1,.16c.15.05.45.19.45.19l-.3,1.71a2.23,2.23,0,0,0-.45-.45,1.44,1.44,0,0,0-.79-.23,1.5,1.5,0,0,0-1.31.87A4.2,4.2,0,0,0,32,18a2.14,2.14,0,0,0,.29,1.25,1,1,0,0,0,.83.37,1.78,1.78,0,0,0,.92-.26,4.78,4.78,0,0,0,.4-.29l-.3,1.63-.23.1c-.18.07-.34.11-.48.16a3.32,3.32,0,0,1-.63.06Z"/><path class="cls-5" d="M13.81,20.7l-.15.1a3.06,3.06,0,0,1-.37.17,2,2,0,0,1-.49.06,1,1,0,0,1-.81-.38,1.52,1.52,0,0,1-.32-1,2.43,2.43,0,0,1,.22-1.1,1.7,1.7,0,0,1,.67-.71,2.87,2.87,0,0,1,1-.36l.27,0a7,7,0,0,1,1-.12.38.38,0,0,1,0-.1.58.58,0,0,0,0-.14.53.53,0,0,0-.23-.49,1.52,1.52,0,0,0-.7-.13h-.06a2.33,2.33,0,0,0-.64.14,5.5,5.5,0,0,0-.57.25h-.12l.19-1.28a4.26,4.26,0,0,1,.69-.17,2.38,2.38,0,0,1,.45-.07,2.76,2.76,0,0,1,.49,0,2.35,2.35,0,0,1,1.38.33,1.19,1.19,0,0,1,.44,1,2.24,2.24,0,0,1,0,.25c0,.1,0,.19,0,.27l-.63,3.69H14.17l.1-.58-.29.26-.17.13Zm0-2.25a1.66,1.66,0,0,0-.35.12.72.72,0,0,0-.33.3.94.94,0,0,0-.12.52.46.46,0,0,0,.15.39.77.77,0,0,0,.45.12.53.53,0,0,0,.2,0l.2-.07a2.94,2.94,0,0,0,.4-.3l.19-1.15c-.22,0-.45.06-.64.1l-.16,0Z"/><path class="cls-5" d="M24.92,16.4a.79.79,0,0,0-.46.26,2,2,0,0,0-.41.81h1.73c0-.06,0-.1,0-.16s0-.1,0-.14a.9.9,0,0,0-.18-.59.63.63,0,0,0-.5-.2l-.2,0Zm0,3.4h.19a1.72,1.72,0,0,0,.8-.19,3.42,3.42,0,0,0,.65-.43h.15l-.24,1.4a3,3,0,0,1-.79.33,3.22,3.22,0,0,1-.76.12h-.12a2,2,0,0,1-1.58-.62,2.4,2.4,0,0,1-.55-1.69,4.91,4.91,0,0,1,.18-1.36,3.55,3.55,0,0,1,.52-1.1,2.57,2.57,0,0,1,.82-.72,2.71,2.71,0,0,1,.73-.25h.35a1.74,1.74,0,0,1,1.35.49,2.06,2.06,0,0,1,.45,1.44,4.49,4.49,0,0,1,0,.65c0,.2-.07.42-.13.62h-3v.11a1.27,1.27,0,0,0,.3.88,1.05,1.05,0,0,0,.7.32Z"/><path class="cls-5" d="M37,20.7a.94.94,0,0,1-.16.1,2.47,2.47,0,0,1-.37.17A2,2,0,0,1,36,21a1,1,0,0,1-.82-.38,1.52,1.52,0,0,1-.31-1,2.42,2.42,0,0,1,.22-1.1,1.73,1.73,0,0,1,.66-.71,2.84,2.84,0,0,1,1-.36l.27,0a6.87,6.87,0,0,1,1-.12s0-.06,0-.1,0-.09,0-.14a.55.55,0,0,0-.24-.49,1.51,1.51,0,0,0-.7-.13H37a2.17,2.17,0,0,0-.64.14,5.36,5.36,0,0,0-.57.25h-.12l.18-1.28a4.12,4.12,0,0,1,.7-.17,2.37,2.37,0,0,1,.44-.07,2.71,2.71,0,0,1,.49,0,2.36,2.36,0,0,1,1.38.33,1.22,1.22,0,0,1,.43,1,2.43,2.43,0,0,1,0,.25c0,.1,0,.19,0,.27l-.63,3.69H37.33l.1-.58-.3.26L37,20.7Zm0-2.25a2,2,0,0,0-.36.12.77.77,0,0,0-.33.3,1,1,0,0,0-.12.52.44.44,0,0,0,.16.39.73.73,0,0,0,.44.12.57.57,0,0,0,.21,0,.89.89,0,0,0,.19-.07,2.47,2.47,0,0,0,.4-.3l.2-1.15c-.23,0-.45.06-.65.1a.47.47,0,0,0-.15,0Z"/><path class="cls-5" d="M42.39,17a.69.69,0,0,0-1,.27l-.62,3.63H39.45l.92-5.42h1.28l0,.44a1.39,1.39,0,0,1,1.21-.43A5.76,5.76,0,0,0,42.39,17Z"/><path class="cls-6" d="M44.92,16.62a.93.93,0,0,0-.18.12,1.45,1.45,0,0,0-.42.49,2.71,2.71,0,0,0-.23.74,3.9,3.9,0,0,0-.1.85,1.2,1.2,0,0,0,.17.71.59.59,0,0,0,.51.23.55.55,0,0,0,.26-.06l.12-.06a2.25,2.25,0,0,0,.36-.25l.46-2.67a1,1,0,0,0-.28-.12.77.77,0,0,0-.29-.06,1,1,0,0,0-.37.07Zm0,4a2.32,2.32,0,0,1-.32.24,1.82,1.82,0,0,1-.31.14,1.45,1.45,0,0,1-.37,0,1.09,1.09,0,0,1-.94-.51,2.69,2.69,0,0,1-.34-1.46,5.27,5.27,0,0,1,.18-1.46,4.36,4.36,0,0,1,.5-1.19,2.66,2.66,0,0,1,.74-.81,1.64,1.64,0,0,1,.85-.3h0a1.71,1.71,0,0,1,.57.09,1.93,1.93,0,0,1,.5.29l.29-1.89H47.6l-1.18,7.09H45.14l.09-.56-.32.27Z"/></g></g></svg>