<svg xmlns="http://www.w3.org/2000/svg" xmlns:xlink="http://www.w3.org/1999/xlink" viewBox="0 0 44.84 42.08"><defs><style>.cls-1{fill:url(#radial-gradient);}.cls-2{isolation:isolate;}.cls-3{mask:url(#mask);}.cls-4{fill:#020101;}.cls-5{fill:#ebebeb;}.cls-6{fill:url(#radial-gradient-2);}.cls-7,.cls-8{fill:#fff;}.cls-7{opacity:0.1;mix-blend-mode:screen;}</style><radialGradient id="radial-gradient" cx="480.96" cy="410.54" r="13.57" gradientTransform="matrix(-1.65, 0, 0.01, -0.24, 812.16, 135.52)" gradientUnits="userSpaceOnUse"><stop offset="0" stop-color="#fff"/><stop offset="0.12" stop-color="#d3d3d3"/><stop offset="0.3" stop-color="#959494"/><stop offset="0.47" stop-color="#616060"/><stop offset="0.63" stop-color="#383737"/><stop offset="0.78" stop-color="#1b1a1a"/><stop offset="0.91" stop-color="#090808"/><stop offset="1" stop-color="#030202"/></radialGradient><mask id="mask" x="0" y="35.59" width="44.84" height="6.49" maskUnits="userSpaceOnUse"><path class="cls-1" d="M0,38.88c.11-1.79,10.22-3.26,22.61-3.28S44.93,37,44.84,38.8s-10.18,3.26-22.58,3.28S-.12,40.67,0,38.88Z"/></mask><radialGradient id="radial-gradient-2" cx="33.52" cy="7.77" r="28.93" gradientUnits="userSpaceOnUse"><stop offset="0.07" stop-color="#50ad5b"/><stop offset="0.29" stop-color="#4aa757"/><stop offset="0.6" stop-color="#37974c"/><stop offset="0.9" stop-color="#1f813d"/></radialGradient></defs><title>whatsapp</title><g class="cls-2"><g id="Layer_2" data-name="Layer 2"><g id="Camada_1" data-name="Camada 1"><g class="cls-3"><path class="cls-4" d="M0,38.88c.11-1.79,10.22-3.26,22.61-3.28S44.93,37,44.84,38.8s-10.18,3.26-22.58,3.28S-.12,40.67,0,38.88Z"/></g><circle class="cls-5" cx="22.42" cy="20.19" r="20.19"/><path class="cls-6" d="M41.06,20.19a18.63,18.63,0,1,1-1.64-7.66A18.64,18.64,0,0,1,41.06,20.19Z"/><path class="cls-7" d="M39.42,12.54a18.65,18.65,0,0,1-34,0,18.65,18.65,0,0,1,34,0Z"/><path class="cls-8" d="M22.53,9.51a10.52,10.52,0,0,0-9,15.89l-1.7,5.49,5.8-1.57A10.52,10.52,0,1,0,22.53,9.51Zm0,19.32a8.76,8.76,0,0,1-4.7-1.36l-.12,0-3.36.91,1-3.28a8.8,8.8,0,1,1,7.17,3.7Z"/><path class="cls-8" d="M20.8,17.43a.77.77,0,0,1,0,.86c-.31.38-.57.68-.57.68s-.27.2,0,.6a7.65,7.65,0,0,0,3.36,2.9.64.64,0,0,0,.86-.33l.62-.8s.15-.2.62,0,2,.93,2,.93.27.09.22.49a2.24,2.24,0,0,1-2.36,2.12,7.48,7.48,0,0,1-4.42-1.74A12.59,12.59,0,0,1,18,19.63l-.11-.19a4,4,0,0,1-.49-1.9c0-.07,0-.15,0-.23a2.24,2.24,0,0,1,1.39-2s.86-.13,1,0Z"/></g></g></g></svg>