<svg xmlns="http://www.w3.org/2000/svg" xmlns:xlink="http://www.w3.org/1999/xlink" viewBox="0 0 44.84 42.08"><defs><style>.cls-1{fill:url(#radial-gradient);}.cls-2{isolation:isolate;}.cls-3{mask:url(#mask);}.cls-4{fill:#020101;}.cls-5{fill:#ebebeb;}.cls-6{fill:url(#radial-gradient-2);}.cls-7,.cls-8{fill:#fff;}.cls-7{opacity:0.1;mix-blend-mode:screen;}</style><radialGradient id="radial-gradient" cx="776.15" cy="411.89" r="13.57" gradientTransform="matrix(-1.65, 0, 0.01, -0.24, 1299.98, 134.98)" gradientUnits="userSpaceOnUse"><stop offset="0" stop-color="#fff"/><stop offset="0.12" stop-color="#d3d3d3"/><stop offset="0.3" stop-color="#959494"/><stop offset="0.47" stop-color="#616060"/><stop offset="0.63" stop-color="#383737"/><stop offset="0.78" stop-color="#1b1a1a"/><stop offset="0.91" stop-color="#090808"/><stop offset="1" stop-color="#030202"/></radialGradient><mask id="mask" x="0" y="35.59" width="44.84" height="6.49" maskUnits="userSpaceOnUse"><path class="cls-1" d="M0,38.88c.11-1.79,10.22-3.26,22.61-3.28S44.93,37,44.84,38.8s-10.18,3.26-22.58,3.28S-.12,40.67,0,38.88Z"/></mask><radialGradient id="radial-gradient-2" cx="33.52" cy="7.77" r="28.93" gradientUnits="userSpaceOnUse"><stop offset="0" stop-color="#444394"/><stop offset="0.1" stop-color="#494394"/><stop offset="0.22" stop-color="#564393"/><stop offset="0.34" stop-color="#6d4292"/><stop offset="0.36" stop-color="#724292"/><stop offset="0.43" stop-color="#794292"/><stop offset="0.52" stop-color="#8b4192"/><stop offset="0.62" stop-color="#aa4092"/><stop offset="0.66" stop-color="#b64092"/><stop offset="0.98" stop-color="#f09f2e"/></radialGradient></defs><title>instagram</title><g class="cls-2"><g id="Layer_2" data-name="Layer 2"><g id="Camada_1" data-name="Camada 1"><g class="cls-3"><path class="cls-4" d="M0,38.88c.11-1.79,10.22-3.26,22.61-3.28S44.93,37,44.84,38.8s-10.18,3.26-22.58,3.28S-.12,40.67,0,38.88Z"/></g><circle class="cls-5" cx="22.42" cy="20.19" r="20.19"/><path class="cls-6" d="M41.06,20.19a18.63,18.63,0,1,1-1.64-7.66A18.64,18.64,0,0,1,41.06,20.19Z"/><path class="cls-7" d="M39.42,12.54a18.65,18.65,0,0,1-34,0,18.65,18.65,0,0,1,34,0Z"/><path class="cls-8" d="M27.59,30.21H17.25a3.84,3.84,0,0,1-3.88-3.79V15.78A3.84,3.84,0,0,1,17.25,12H27.59a3.84,3.84,0,0,1,3.88,3.79V26.42A3.84,3.84,0,0,1,27.59,30.21ZM17.25,13.55a2.28,2.28,0,0,0-2.32,2.23V26.42a2.28,2.28,0,0,0,2.32,2.23H27.59a2.28,2.28,0,0,0,2.32-2.23V15.78a2.28,2.28,0,0,0-2.32-2.23Z"/><path class="cls-8" d="M22.42,25.83a4.73,4.73,0,1,1,4.73-4.73A4.74,4.74,0,0,1,22.42,25.83Zm0-7.9a3.17,3.17,0,1,0,3.17,3.17A3.17,3.17,0,0,0,22.42,17.93Z"/><circle class="cls-8" cx="27.5" cy="16.13" r="1.11"/></g></g></g></svg>