<svg xmlns="http://www.w3.org/2000/svg" xmlns:xlink="http://www.w3.org/1999/xlink" viewBox="0 0 44.84 42.08"><defs><style>.cls-1{fill:url(#radial-gradient);}.cls-2{isolation:isolate;}.cls-3{mask:url(#mask);}.cls-4{fill:#020101;}.cls-5{fill:#ebebeb;}.cls-6{fill:url(#radial-gradient-2);}.cls-7,.cls-8{fill:#fff;}.cls-7{opacity:0.1;mix-blend-mode:screen;}</style><radialGradient id="radial-gradient" cx="579.35" cy="410.99" r="13.57" gradientTransform="matrix(-1.65, 0, 0.01, -0.24, 974.77, 135.34)" gradientUnits="userSpaceOnUse"><stop offset="0" stop-color="#fff"/><stop offset="0.12" stop-color="#d3d3d3"/><stop offset="0.3" stop-color="#959494"/><stop offset="0.47" stop-color="#616060"/><stop offset="0.63" stop-color="#383737"/><stop offset="0.78" stop-color="#1b1a1a"/><stop offset="0.91" stop-color="#090808"/><stop offset="1" stop-color="#030202"/></radialGradient><mask id="mask" x="0" y="35.59" width="44.84" height="6.49" maskUnits="userSpaceOnUse"><path class="cls-1" d="M0,38.88c.11-1.79,10.22-3.26,22.61-3.28S44.93,37,44.84,38.8s-10.18,3.26-22.58,3.28S-.12,40.67,0,38.88Z"/></mask><radialGradient id="radial-gradient-2" cx="33.52" cy="7.77" r="28.93" gradientUnits="userSpaceOnUse"><stop offset="0.07" stop-color="#5ebab7"/><stop offset="0.23" stop-color="#57b7b7"/><stop offset="0.45" stop-color="#45aeb6"/><stop offset="0.71" stop-color="#269fb5"/><stop offset="0.93" stop-color="#0790b4"/></radialGradient></defs><title>twitter</title><g class="cls-2"><g id="Layer_2" data-name="Layer 2"><g id="Camada_1" data-name="Camada 1"><g class="cls-3"><path class="cls-4" d="M0,38.88c.11-1.79,10.22-3.26,22.61-3.28S44.93,37,44.84,38.8s-10.18,3.26-22.58,3.28S-.12,40.67,0,38.88Z"/></g><circle class="cls-5" cx="22.42" cy="20.19" r="20.19"/><path class="cls-6" d="M41.06,20.19a18.63,18.63,0,1,1-1.64-7.66A18.64,18.64,0,0,1,41.06,20.19Z"/><path class="cls-7" d="M39.42,12.54a18.65,18.65,0,0,1-34,0,18.65,18.65,0,0,1,34,0Z"/><path class="cls-8" d="M30.11,15.57s1.52-1.23,1.64-2.24a6.52,6.52,0,0,1-2.58,1,4.06,4.06,0,0,0-4.07-1.13c-2.65.63-3.2,3.59-2.89,4.77a11.81,11.81,0,0,1-8.35-4.19,4.08,4.08,0,0,0,1.32,5.42s-1.51-.1-1.85-.48a4,4,0,0,0,3.3,4,4.63,4.63,0,0,1-1.88.17,4.19,4.19,0,0,0,3.8,2.72,8.52,8.52,0,0,1-6.07,1.71A11.32,11.32,0,0,0,21,28.9l.71-.18A12,12,0,0,0,29,22.82c.1-.19.2-.39.29-.59a11.25,11.25,0,0,0,1-5.24,7.73,7.73,0,0,0,2-2A8.68,8.68,0,0,1,30.11,15.57Z"/></g></g></g></svg>