<svg xmlns="http://www.w3.org/2000/svg" viewBox="0 0 52.57 34.91"><defs><style>.cls-1{fill:#fff;}.cls-2{fill:#00529b;}.cls-3{fill:#f5ab00;}</style></defs><title>VisaCard</title><g id="Layer_2" data-name="Layer 2"><g id="Camada_1" data-name="Camada 1"><polygon class="cls-1" points="52.57 0 52.57 34.91 0 34.91 0 34.91 0 0 52.57 0"/><polygon class="cls-2" points="19.92 23.88 22.1 11.07 25.59 11.07 23.4 23.88 19.92 23.88 19.92 23.88"/><path class="cls-2" d="M36.07,11.38a9,9,0,0,0-3.13-.54c-3.45,0-5.88,1.74-5.9,4.23,0,1.84,1.73,2.87,3.06,3.48s1.82,1,1.81,1.59c0,.86-1.09,1.25-2.09,1.25a7.31,7.31,0,0,1-3.29-.67l-.45-.2-.49,2.87a11,11,0,0,0,3.89.68c3.67,0,6.05-1.72,6.08-4.38,0-1.46-.92-2.56-2.93-3.48-1.22-.59-2-1-2-1.59s.63-1.1,2-1.1a6.42,6.42,0,0,1,2.61.49l.31.15.47-2.78Z"/><path class="cls-2" d="M45,11.08h-2.7a1.74,1.74,0,0,0-1.83,1.06L35.31,23.88H39s.6-1.58.73-1.92h4.47c.1.45.42,1.92.42,1.92h3.24L45,11.08Zm-4.3,8.26,1.39-3.58s.29-.74.46-1.22l.24,1.1.81,3.7Z"/><path class="cls-2" d="M17,11.08l-3.42,8.73L13.21,18a10,10,0,0,0-4.83-5.37l3.12,11.2h3.69l5.5-12.78Z"/><path class="cls-3" d="M10.4,11.07H4.77l0,.27C9.11,12.4,12,15,13.21,18L12,12.15a1.46,1.46,0,0,0-1.58-1.08Z"/></g></g></svg>