<svg xmlns="http://www.w3.org/2000/svg" viewBox="0 0 52.57 34.91"><defs><style>.cls-1{fill:#fff;}.cls-2{fill:#004a97;}.cls-3{fill:#1f140f;}</style></defs><title>dinnerCard</title><g id="Layer_2" data-name="Layer 2"><g id="Camada_1" data-name="Camada 1"><polygon class="cls-1" points="52.57 0 52.57 34.91 0 34.91 0 34.91 0 0 52.57 0"/><path class="cls-2" d="M11.95,23.48a6.25,6.25,0,0,0,6.29-6,6.15,6.15,0,0,0-6.29-6.07H9.11A5.94,5.94,0,0,0,3,17.52a6,6,0,0,0,6.07,6Z"/><path class="cls-1" d="M10.38,20.71V14.19a3.49,3.49,0,0,1,0,6.52M5.64,17.45a3.5,3.5,0,0,1,2.24-3.26v6.52a3.5,3.5,0,0,1-2.24-3.26m3.49-5.51a5.51,5.51,0,1,0,5.51,5.51,5.51,5.51,0,0,0-5.51-5.51"/><path class="cls-3" d="M20.9,19c0,.49.35.54.66.54a1.76,1.76,0,0,0,1.82-2,1.9,1.9,0,0,0-2-2c-.26,0-.38,0-.49,0Zm-.62-3c0-.57-.3-.53-.58-.54v-.16h1.84a2.31,2.31,0,0,1,2.53,2.22c0,.63-.37,2.2-2.61,2.2H19.69v-.16c.38,0,.56-.05.58-.48Z"/><path class="cls-3" d="M25,15.83a.31.31,0,0,1,0-.62.31.31,0,0,1,.31.3.32.32,0,0,1-.31.32m-.68,3.7h.12c.18,0,.3,0,.3-.21V17.61c0-.28-.09-.32-.33-.44v-.1c.3-.09.65-.21.68-.23a.23.23,0,0,1,.11,0s0,0,0,.09v2.43c0,.21.14.21.32.21h.11v.16H24.29Z"/><path class="cls-3" d="M26.25,17.65c0-.23-.07-.3-.37-.42v-.12a8.49,8.49,0,0,0,.84-.3s0,0,0,.06v.41a1.86,1.86,0,0,1,1.1-.47c.54,0,.73.39.73.89v1.63c0,.21.14.21.32.21H29v.16H27.65v-.16h.11c.18,0,.3,0,.3-.21V17.69c0-.36-.22-.54-.58-.54a1.69,1.69,0,0,0-.74.3v1.87c0,.21.14.21.32.21h.11v.16H25.83v-.16h.11c.18,0,.3,0,.3-.21Z"/><path class="cls-3" d="M30.61,17.75c.16,0,.18-.08.18-.16a.54.54,0,0,0-.55-.58c-.39,0-.65.28-.73.74Zm-1.12.2a1.53,1.53,0,0,0,0,.37,1.06,1.06,0,0,0,.93,1.09,1.21,1.21,0,0,0,.86-.42l.09.09a1.48,1.48,0,0,1-1.17.72A1.27,1.27,0,0,1,29,18.41c0-1.24.84-1.61,1.28-1.61a1,1,0,0,1,1.07,1,.77.77,0,0,1,0,.11l-.06,0Z"/><path class="cls-3" d="M31.47,19.53h.17c.18,0,.3,0,.3-.21V17.55c0-.2-.23-.23-.33-.29v-.09c.46-.2.72-.36.77-.36s.06,0,.06.08v.57h0c.16-.25.42-.65.81-.65a.34.34,0,0,1,.36.34.31.31,0,0,1-.3.32c-.2,0-.2-.15-.42-.15a.53.53,0,0,0-.46.53v1.49c0,.21.13.21.3.21h.35v.16H31.47Z"/><path class="cls-3" d="M33.91,18.82a.83.83,0,0,0,.8.77.45.45,0,0,0,.51-.45c0-.75-1.38-.51-1.38-1.53a.87.87,0,0,1,1-.81,1.67,1.67,0,0,1,.72.18l0,.65h-.15a.65.65,0,0,0-.69-.63.45.45,0,0,0-.49.42c0,.74,1.47.51,1.47,1.51,0,.42-.34.86-1.09.86a1.67,1.67,0,0,1-.77-.22l-.07-.73Z"/><path class="cls-3" d="M41.45,16.43h-.16a1.2,1.2,0,0,0-1.35-1,1.8,1.8,0,0,0-1.79,2A2.06,2.06,0,0,0,40,19.59a1.29,1.29,0,0,0,1.27-1.1l.15,0-.15.92a3.55,3.55,0,0,1-1.4.34,2.25,2.25,0,0,1-2.42-2.38,2.33,2.33,0,0,1,2.4-2.23,4.56,4.56,0,0,1,1.49.34Z"/><path class="cls-3" d="M41.67,19.53h.12c.18,0,.3,0,.3-.21V15.8c0-.41-.09-.42-.34-.49v-.1a4,4,0,0,0,.65-.27l.14-.07s.05,0,.05.09v4.37c0,.21.14.21.32.21H43v.16H41.67Z"/><path class="cls-3" d="M45.74,19.35c0,.11.07.12.18.12h.25v.13a6.37,6.37,0,0,0-.91.2l0,0v-.51a1.71,1.71,0,0,1-1.12.53.68.68,0,0,1-.7-.75V17.42c0-.16,0-.32-.38-.35v-.12l.82,0c.07,0,.07,0,.07.18v1.63c0,.19,0,.73.55.73a1.41,1.41,0,0,0,.77-.39v-1.7c0-.13-.3-.2-.53-.26V17c.57,0,.92-.09,1-.09s.05,0,.05.11Z"/><path class="cls-3" d="M47,19a.68.68,0,0,0,.65.65c.68,0,1-.67,1-1.23a1.21,1.21,0,0,0-1-1.25,1,1,0,0,0-.6.3Zm0-1.72a1.6,1.6,0,0,1,.94-.46,1.23,1.23,0,0,1,1.18,1.33,1.6,1.6,0,0,1-1.51,1.66,1.87,1.87,0,0,1-.88-.22l-.19.15-.13-.07a7.47,7.47,0,0,0,.09-1.13V15.8c0-.41-.1-.42-.34-.49v-.1a4,4,0,0,0,.65-.27l.14-.07s.05,0,.05.09Z"/><path class="cls-3" d="M49.05,16.47h0c.05,0,.08,0,.08-.1s0-.09-.08-.09h0Zm-.14.22v0c.05,0,.06,0,.06,0v-.3s0-.06-.06-.05v0h.21c.07,0,.14,0,.14.11a.13.13,0,0,1-.1.12l.07.09a.41.41,0,0,0,.09.1h-.08s-.07-.08-.15-.19h0v.14s0,0,.06,0v0Zm.2.12a.33.33,0,1,0-.32-.33.33.33,0,0,0,.32.33m0-.74a.41.41,0,1,1-.41.41.4.4,0,0,1,.41-.41"/></g></g></svg>