<svg xmlns="http://www.w3.org/2000/svg" viewBox="0 0 56.65 35.6"><defs><style>.cls-1{fill:#fff;}.cls-2{fill:#004a97;}.cls-3{fill:#1f140f;}</style></defs><title>dinnersCard</title><g id="Layer_2" data-name="Layer 2"><g id="Camada_1" data-name="Camada 1"><rect class="cls-1" width="56.65" height="35.6"/><path class="cls-2" d="M12.72,24.35a6.81,6.81,0,0,0,6.85-6.49,6.69,6.69,0,0,0-6.85-6.61H9.64A6.46,6.46,0,0,0,3,17.86a6.56,6.56,0,0,0,6.61,6.49Z"/><path class="cls-1" d="M11,21.34v-7.1a3.8,3.8,0,0,1,0,7.1M5.85,17.79a3.81,3.81,0,0,1,2.44-3.55v7.09a3.81,3.81,0,0,1-2.44-3.55m3.8-6a6,6,0,1,0,6,6,6,6,0,0,0-6-6"/><path class="cls-3" d="M22.46,19.42c0,.53.38.59.72.59a1.92,1.92,0,0,0,2-2.15A2.07,2.07,0,0,0,23,15.64c-.28,0-.41,0-.54,0Zm-.68-3.23c0-.62-.32-.58-.63-.59v-.18h2a2.51,2.51,0,0,1,2.76,2.41c0,.68-.4,2.4-2.84,2.4H21.15v-.18c.41,0,.61-.06.63-.52Z"/><path class="cls-3" d="M26.89,16a.34.34,0,0,1,0-.68.34.34,0,0,1,.34.33.34.34,0,0,1-.34.34m-.74,4h.13c.19,0,.33,0,.33-.23V18c0-.3-.1-.35-.36-.48v-.11c.32-.1.71-.23.74-.25a.25.25,0,0,1,.12,0s0,0,0,.1v2.65c0,.23.15.23.34.23h.12v.18H26.15Z"/><path class="cls-3" d="M28.28,18c0-.25-.08-.32-.4-.45v-.13a9.24,9.24,0,0,0,.91-.33s0,0,0,.07v.45A2,2,0,0,1,30,17.08c.59,0,.79.43.79,1v1.78c0,.23.15.23.34.23h.12v.18H29.81v-.18h.12c.19,0,.33,0,.33-.23V18c0-.39-.24-.59-.63-.59a1.84,1.84,0,0,0-.8.33v2c0,.23.15.23.35.23h.12v.18H27.83v-.18H28c.19,0,.33,0,.33-.23Z"/><path class="cls-3" d="M33,18.11c.17,0,.19-.09.19-.17a.58.58,0,0,0-.6-.63c-.42,0-.71.31-.79.81Zm-1.22.22a1.66,1.66,0,0,0,0,.4,1.15,1.15,0,0,0,1,1.19,1.32,1.32,0,0,0,.93-.46l.1.1a1.62,1.62,0,0,1-1.27.78,1.38,1.38,0,0,1-1.32-1.5c0-1.35.91-1.75,1.39-1.75a1.09,1.09,0,0,1,1.16,1.08.84.84,0,0,1,0,.12l-.06,0Z"/><path class="cls-3" d="M34,20.05h.19c.19,0,.33,0,.33-.23V17.89c0-.21-.25-.26-.36-.31v-.1c.5-.21.78-.39.84-.39s.06,0,.06.09v.62h0c.17-.27.46-.71.88-.71a.38.38,0,0,1,.39.37.33.33,0,0,1-.32.35c-.21,0-.21-.17-.46-.17a.58.58,0,0,0-.5.57v1.62c0,.23.14.23.33.23h.39v.18H34Z"/><path class="cls-3" d="M36.62,19.27a.91.91,0,0,0,.87.84.49.49,0,0,0,.56-.49c0-.81-1.5-.55-1.5-1.66a1,1,0,0,1,1.07-.88,1.81,1.81,0,0,1,.79.2l0,.7h-.16a.71.71,0,0,0-.75-.68.48.48,0,0,0-.54.45c0,.81,1.6.56,1.6,1.64,0,.45-.36.94-1.19.94a1.82,1.82,0,0,1-.84-.23l-.08-.79Z"/><path class="cls-3" d="M44.82,16.67h-.17a1.31,1.31,0,0,0-1.47-1.13,2,2,0,0,0-1.94,2.18,2.25,2.25,0,0,0,2.05,2.39,1.4,1.4,0,0,0,1.39-1.19l.16,0-.16,1a3.86,3.86,0,0,1-1.52.37,2.45,2.45,0,0,1-2.63-2.59,2.53,2.53,0,0,1,2.61-2.43,5,5,0,0,1,1.63.37Z"/><path class="cls-3" d="M45.07,20.05h.13c.19,0,.33,0,.33-.23V16c0-.45-.1-.46-.37-.54v-.11a4.38,4.38,0,0,0,.71-.3A.72.72,0,0,1,46,15s.06,0,.06.1v4.76c0,.23.15.23.34.23h.12v.18H45.07Z"/><path class="cls-3" d="M49.5,19.85c0,.12.08.13.19.13H50v.15a6.94,6.94,0,0,0-1,.21l0,0v-.56a1.86,1.86,0,0,1-1.22.58.74.74,0,0,1-.76-.82V17.75c0-.18,0-.35-.41-.39v-.13l.89,0c.08,0,.08,0,.08.2v1.78c0,.21,0,.8.6.8a1.54,1.54,0,0,0,.83-.42V17.69c0-.14-.33-.21-.58-.28v-.12c.62,0,1-.1,1.07-.1s.06,0,.06.12Z"/><path class="cls-3" d="M50.87,19.45a.74.74,0,0,0,.71.7c.74,0,1-.72,1-1.34a1.31,1.31,0,0,0-1.1-1.36,1.06,1.06,0,0,0-.65.32Zm0-1.87a1.74,1.74,0,0,1,1-.5,1.34,1.34,0,0,1,1.28,1.45,1.74,1.74,0,0,1-1.65,1.81,2,2,0,0,1-1-.24l-.21.16-.14-.08a8.13,8.13,0,0,0,.1-1.23V16c0-.45-.1-.46-.37-.54v-.11a4.35,4.35,0,0,0,.71-.3.7.7,0,0,1,.15-.08s.05,0,.05.1Z"/><path class="cls-3" d="M53.1,16.72h.05c.06,0,.08,0,.08-.11s0-.1-.09-.1h0ZM53,17v0c.05,0,.06,0,.06,0v-.33s0-.06-.06-.06v0h.23c.08,0,.15,0,.15.12a.14.14,0,0,1-.11.13l.07.1a.45.45,0,0,0,.1.1h-.09s-.08-.09-.16-.2h0v.15s0,0,.06,0v0Zm.22.13a.36.36,0,1,0-.35-.36.36.36,0,0,0,.35.36m0-.81a.44.44,0,1,1-.44.45.44.44,0,0,1,.44-.45"/></g></g></svg>