<svg xmlns="http://www.w3.org/2000/svg" xmlns:xlink="http://www.w3.org/1999/xlink" viewBox="0 0 44.84 42.08"><defs><style>.cls-1{fill:url(#radial-gradient);}.cls-2{isolation:isolate;}.cls-3{mask:url(#mask);}.cls-4{fill:#020101;}.cls-5{fill:#ebebeb;}.cls-6{fill:url(#radial-gradient-2);}.cls-7,.cls-8{fill:#fff;}.cls-7{opacity:0.1;mix-blend-mode:screen;}</style><radialGradient id="radial-gradient" cx="677.75" cy="411.44" r="13.57" gradientTransform="matrix(-1.65, 0, 0.01, -0.24, 1137.37, 135.16)" gradientUnits="userSpaceOnUse"><stop offset="0" stop-color="#fff"/><stop offset="0.12" stop-color="#d3d3d3"/><stop offset="0.3" stop-color="#959494"/><stop offset="0.47" stop-color="#616060"/><stop offset="0.63" stop-color="#383737"/><stop offset="0.78" stop-color="#1b1a1a"/><stop offset="0.91" stop-color="#090808"/><stop offset="1" stop-color="#030202"/></radialGradient><mask id="mask" x="0" y="35.59" width="44.84" height="6.49" maskUnits="userSpaceOnUse"><path class="cls-1" d="M0,38.88c.11-1.79,10.22-3.26,22.61-3.28S44.93,37,44.84,38.8s-10.18,3.26-22.58,3.28S-.12,40.67,0,38.88Z"/></mask><radialGradient id="radial-gradient-2" cx="33.52" cy="7.77" r="28.93" gradientUnits="userSpaceOnUse"><stop offset="0" stop-color="#127eb9"/><stop offset="0.69" stop-color="#075784"/></radialGradient></defs><title>facebook</title><g class="cls-2"><g id="Layer_2" data-name="Layer 2"><g id="Camada_1" data-name="Camada 1"><g class="cls-3"><path class="cls-4" d="M0,38.88c.11-1.79,10.22-3.26,22.61-3.28S44.93,37,44.84,38.8s-10.18,3.26-22.58,3.28S-.12,40.67,0,38.88Z"/></g><circle class="cls-5" cx="22.42" cy="20.19" r="20.19"/><path class="cls-6" d="M41.06,20.19a18.63,18.63,0,1,1-1.64-7.66A18.64,18.64,0,0,1,41.06,20.19Z"/><path class="cls-7" d="M39.42,12.54a18.65,18.65,0,0,1-34,0,18.65,18.65,0,0,1,34,0Z"/><path class="cls-8" d="M23.71,14.64c0-1.42,1.21-1.21,1.21-1.21h3.82V9.19H23c-4.33,0-4.44,4.76-4.44,4.76v3.24h0l-2.46,0V21.1h2.46V33h5.14V21.1h4.36l.67-4-5,0V14.64Z"/></g></g></g></svg>