<svg xmlns="http://www.w3.org/2000/svg" viewBox="0 0 281.57 74.92"><defs><style>.cls-1{fill:#bf0811;}.cls-2{fill:#001d7e;}</style></defs><title>frana-logo-26</title><g id="Camada_2" data-name="Camada 2"><g id="Camada_1-2" data-name="Camada 1"><path class="cls-1" d="M20.09,54.18l-1.42,3.31H10.58a12.89,12.89,0,0,1-3.21-.9,17.52,17.52,0,0,0-4.12-.3h-.4L3,55.86l3.82-.12a6.61,6.61,0,0,0,2-.57,6.62,6.62,0,0,1,2-.57Zm1.72-3.82L20.16,54H15.31a27.56,27.56,0,0,1-5.39-.75,30.79,30.79,0,0,0-5.39-.81l.2-.42,3.64-.12a7.27,7.27,0,0,0,2.15-.57,7.31,7.31,0,0,1,2.12-.57Zm1.72-3.82L21.88,50.2l-8.55-.36a4.63,4.63,0,0,1-1.66-.57A4.12,4.12,0,0,0,10,48.73l-3.77-.06.15-.45,3.84-.12a6.17,6.17,0,0,0,1.93-.56A6.22,6.22,0,0,1,14.07,47Zm1.69-3.82-1.64,3.7L15.13,46a19.27,19.27,0,0,1-2.71-.9,16.48,16.48,0,0,0-4-.3H7.95l.1-.45H10a10.23,10.23,0,0,0,2.86-.57,12.08,12.08,0,0,1,2.83-.63Zm14.14-3.88L37.67,42.5l-20.94-.3a4,4,0,0,1-1.67-.54,4.56,4.56,0,0,0-1.64-.57L9.64,41l.23-.42a37.67,37.67,0,0,0,4.8-.66,27.65,27.65,0,0,1,4.83-.6ZM41.05,35l-1.59,3.61-21-.24a15.75,15.75,0,0,1-3.59-.6,17.57,17.57,0,0,0-3.54-.63l.15-.42a22.46,22.46,0,0,0,4-.62,22.53,22.53,0,0,1,4-.62Zm1.64-3.76L41.1,34.85,20,34.55A3.88,3.88,0,0,1,18.37,34a3.88,3.88,0,0,0-1.64-.57L13,33.31l.13-.39q2.58-.09,8.55-.93a67.33,67.33,0,0,1,8.55-.75ZM32,27.38l-1.64,3.7-8.27-.33a5.16,5.16,0,0,1-1.8-.59,5.17,5.17,0,0,0-1.82-.59l-3.77-.09.2-.42,3.77-.12a6.74,6.74,0,0,0,2-.56,6.79,6.79,0,0,1,2-.56ZM46.09,23.5l-1.59,3.67H31.92q-3.19,0-7.71-.27a25.44,25.44,0,0,1-3.87-.66,22.07,22.07,0,0,0-3.89-.57l.2-.45a25,25,0,0,0,4.21-.62A25,25,0,0,1,25.07,24Zm1.69-3.82-1.59,3.61-20.71-.21a16.69,16.69,0,0,1-3.67-.6,18.59,18.59,0,0,0-3.67-.63l.2-.42a23.46,23.46,0,0,0,4.14-.63,23.69,23.69,0,0,1,4.16-.63Zm1.42-3.28-1.34,3.1-20.21-.27a22.21,22.21,0,0,1-3.91-.6,22.37,22.37,0,0,0-3.91-.6l.2-.45a25.16,25.16,0,0,0,4.1-.6,21.33,21.33,0,0,1,4.12-.57Z"/><path class="cls-1" d="M50.64,54.18l-1.47,3.31H41.94a8.61,8.61,0,0,1-2.62-.6,9.63,9.63,0,0,0-2.59-.63l-3.34-.06.15-.45,2.28,0a8.48,8.48,0,0,0,2.76-.57,11.5,11.5,0,0,1,2.76-.63Zm1.72-3.82L50.71,54l-8.24-.39a5.29,5.29,0,0,1-1.8-.57,5.31,5.31,0,0,0-1.8-.57l-3.74-.15.13-.39h1.16l1.14,0a9.65,9.65,0,0,0,2.82-.62,10.71,10.71,0,0,1,2.74-.65Zm1.72-3.76L52.46,50.2l-7.74-.36a6.66,6.66,0,0,1-1.92-.45q-1.54-.57-1.87-.66a21.9,21.9,0,0,0-3.46-.18h-.61l.2-.45,1.26,0,1.21,0a9.18,9.18,0,0,0,2.74-.62A10.17,10.17,0,0,1,45,46.89Zm17.55-.15q-1,0-2.58,0l-2.58.06a29.73,29.73,0,0,1-5.79-.81,35.46,35.46,0,0,0-5.77-.9l-.76,1.6q-.91,0-2.48,0h-.56a27.5,27.5,0,0,1-5.92-.48,66.06,66.06,0,0,0-6.73-1.11l.28-.45a23.28,23.28,0,0,0,3.87-.54,33.75,33.75,0,0,1,3.84-.63l9.46-.6-.78,1.81a22.49,22.49,0,0,0,3.81-.56,26.25,26.25,0,0,1,3.71-.59l7.84-.39Zm1.31-7.5a24.26,24.26,0,0,1-3.06,2l.51,1.69-22.53-.42a18.87,18.87,0,0,1-3.79-.63,22.22,22.22,0,0,0-3.79-.69l.18-.33a26.27,26.27,0,0,0,3.9-.63,21.28,21.28,0,0,1,3.89-.6Zm3.77-3.79q-2.68,3.7-3.64,3.67l-23.14-.45a21.06,21.06,0,0,1-4-.65A21.28,21.28,0,0,0,42,37.08l.2-.42A21.66,21.66,0,0,0,46,36.07a21.68,21.68,0,0,1,3.83-.59Zm2.17-3.82A13.4,13.4,0,0,1,76.79,35l-26.2-.51a16.31,16.31,0,0,1-3.45-.63,16.28,16.28,0,0,0-3.4-.63l.18-.42a19.22,19.22,0,0,0,3.74-.54,21.68,21.68,0,0,1,3.74-.57ZM62.83,27.17,61,31.35l-8.8-.75a3.93,3.93,0,0,1-1.44-.53,3.94,3.94,0,0,0-1.47-.53l-3.79-.12.13-.39L48.26,29a9.79,9.79,0,0,0,2.66-.48,13,13,0,0,1,1.9-.6Zm17.5-1.84a8.16,8.16,0,0,1-.2,2l-25.74-.45a18.11,18.11,0,0,1-3.62-.66,14.19,14.19,0,0,0-3.62-.57l.15-.45a26.7,26.7,0,0,0,4.25-.59A26.71,26.71,0,0,1,55.77,24l24.51-.3Zm-.08-1.81L56.48,23a20.6,20.6,0,0,1-3.84-.62,23.43,23.43,0,0,0-3.79-.65l.18-.39A23.57,23.57,0,0,0,53,20.8a23.54,23.54,0,0,1,4-.59l22.28-.33A12.39,12.39,0,0,1,80.25,23.53Zm-1.16-3.79L58.4,19.28a6.54,6.54,0,0,1-2-.59,6.55,6.55,0,0,0-2-.59L50.59,18l.2-.42A26.66,26.66,0,0,0,55.32,17a26.61,26.61,0,0,1,4.55-.57H71.76Q77.32,16.39,79.09,19.73ZM72.87,50.26q-.78,0-4.3,0a35,35,0,0,1-6.35-.78,51.26,51.26,0,0,0-6.27-.9l.15-.36a16.16,16.16,0,0,0,4.1-.54A19.65,19.65,0,0,1,63.41,47l8.27-.42Zm1.26,3.79q-.53,0-3.72,0H68.57a31.7,31.7,0,0,1-5.84-.75,39.06,39.06,0,0,0-5.82-.87l.15-.39L61,51.92a4.9,4.9,0,0,0,1.81-.53,5.6,5.6,0,0,1,1.78-.56l8.4-.42Zm1.09,3.43h-10a4.45,4.45,0,0,1-1.76-.54,5,5,0,0,0-1.73-.57l-3.89-.15.2-.42,3.84-.06a4.64,4.64,0,0,0,1.77-.53,5.25,5.25,0,0,1,1.74-.56l8.75-.42Zm4.86-30a11.74,11.74,0,0,1-1.14,3.73l-8.47-.42a10.92,10.92,0,0,1-2.55-.87,18,18,0,0,0-4.48-.42l.18-.39,2.6,0a8.48,8.48,0,0,0,2.58-.45,17.2,17.2,0,0,1,2.58-.78Z"/><path class="cls-1" d="M85.34,54.18l-2.43,3.31H74a11.73,11.73,0,0,1-2.88-.87,18,18,0,0,0-4.3-.36h-.4l.15-.42,4-.12a6.11,6.11,0,0,0,1.88-.54,6.16,6.16,0,0,1,1.88-.54ZM88,50.41l-2.66,3.64-8.85-.39a5.51,5.51,0,0,1-1.82-.57,5.5,5.5,0,0,0-1.85-.57l-3.59-.09.15-.42h1.19l1.19,0a9.52,9.52,0,0,0,2.81-.62,10.62,10.62,0,0,1,2.73-.65Zm3-4.09-2.88,3.94-8.47-.42a12.11,12.11,0,0,1-3-.9,19.69,19.69,0,0,0-4.17-.3h-.38l.18-.45,3.77-.09a6.11,6.11,0,0,0,1.88-.54A6.19,6.19,0,0,1,79.8,47Zm20.61-3.55-.51,3.64q-3.06,0-8.52.09-6,.15-8.5.15a86.68,86.68,0,0,1-12-.63q-2.35-.57-7.13-1.21l.2-.42a25.77,25.77,0,0,0,4.24-.6,29.58,29.58,0,0,1,4.19-.63q5.61-.27,14-.3Q104.63,42.8,111.64,42.77Zm.61-3.79-.56,3.67-25.42-.36a25.5,25.5,0,0,1-4.25-.6A29.13,29.13,0,0,0,77.77,41l.18-.48a23.47,23.47,0,0,0,4-.6,23.55,23.55,0,0,1,4-.6Zm.56-3.85-.53,3.67-8.85-.36a13.33,13.33,0,0,1-2.91-.57,15.3,15.3,0,0,0-2.91-.6l-1.34,1.84-8.88-.72q-2.23-.54-6.75-1.17l.18-.45a22.24,22.24,0,0,0,3.87-.59,22.26,22.26,0,0,1,3.84-.59l10.55-.36-1,1.5h.48a11.13,11.13,0,0,0,2.87-.54,14.44,14.44,0,0,1,2.77-.6Zm.56-3.82L112.85,35l-8.22-.33a7.55,7.55,0,0,1-2.17-.57,7.57,7.57,0,0,0-2.15-.57L99.2,35l-8.62-.42A21.06,21.06,0,0,1,87.06,34a18.45,18.45,0,0,0-3.59-.6l.18-.39a22,22,0,0,0,3.92-.6,25.07,25.07,0,0,1,3.89-.63l10.39-.42-1,1.51a9,9,0,0,0,2.11-.56,7.77,7.77,0,0,1,2.11-.53ZM114,27.5l-.58,3.67-5.29-.09A16.23,16.23,0,0,1,102.89,30L102,31.17l-7.54-.33a26.5,26.5,0,0,1-4-.66,22.88,22.88,0,0,0-4-.6l.2-.48a23.28,23.28,0,0,0,3.87-.54,26.65,26.65,0,0,1,3.84-.63l10.52-.63L104,28.4A76.22,76.22,0,0,1,114,27.5Zm.56-3.85-.56,3.7q-1.77,0-4.78,0-3.54.06-4.78.06-7.08,0-9-.66a20.7,20.7,0,0,0-6.27-1l.23-.45,3.87-.09a9.24,9.24,0,0,0,2.44-.59A9.28,9.28,0,0,1,98.11,24Zm.56-3.79-.53,3.64q-1.49,0-4.07,0-2.91.06-4,.06-6.25,0-8.12-.63A22,22,0,0,0,92,21.9l.15-.39,3.62-.12a10.34,10.34,0,0,0,2.54-.57,10.36,10.36,0,0,1,2.57-.57Zm-5.16,34.3-.46,3.34H101a7.9,7.9,0,0,1-2.43-.56,8.86,8.86,0,0,0-2.38-.59l-3.82-.12.18-.42h1.29q1,.06,1.32.06a8.54,8.54,0,0,0,2.67-.63,9.44,9.44,0,0,1,2.62-.66Zm.58-3.76L110,54l-9.81-.36A4.33,4.33,0,0,1,98.52,53a3.87,3.87,0,0,0-1.63-.56l-3.69,0,.15-.45,3.89-.12a6.17,6.17,0,0,0,1.93-.56,6.22,6.22,0,0,1,1.91-.56Zm.61-3.82-.58,3.67-9.38-.36a4.69,4.69,0,0,1-1.71-.59,4.2,4.2,0,0,0-1.71-.56L94,48.64l.15-.42h1.11l1.11,0a9.6,9.6,0,0,0,2.77-.6,10.75,10.75,0,0,1,2.69-.63Zm4.45-30.17-.43,3.31-12.62-.36a15.14,15.14,0,0,1-2.95-.62,15.7,15.7,0,0,0-3.91-.62h-.78l.23-.42a53,53,0,0,0,5.84-.69,40.33,40.33,0,0,1,5.87-.6Z"/><path class="cls-1" d="M125.62,54.18l-1.44,3.31h-7.54a12,12,0,0,1-3.84-1,17,17,0,0,0-4-.33h-.48l.15-.39,3.84-.09a6.21,6.21,0,0,0,1.92-.54,6.28,6.28,0,0,1,1.9-.54Zm1.72-3.79L125.67,54l-8.47-.36a4.6,4.6,0,0,1-1.69-.59,4.62,4.62,0,0,0-1.69-.59l-3.74-.12.18-.39,1.29,0,1.24,0a8.48,8.48,0,0,0,2.6-.57,11.4,11.4,0,0,1,2.58-.69Q119.68,50.63,127.34,50.38Zm1.72-3.82-1.64,3.64-8.47-.39a6.41,6.41,0,0,1-1.8-.57,17.83,17.83,0,0,0-5.34-.66l.13-.39a17.7,17.7,0,0,0,4.17-.57,21.85,21.85,0,0,1,3.62-.66Zm22.56-3.82L150,46.44,136.73,46a16.07,16.07,0,0,1-3.41-.63,16.2,16.2,0,0,0-3.39-.63l-.78,1.6L120.39,46a20.44,20.44,0,0,1-3.41-.62,17.8,17.8,0,0,0-3.46-.59l.23-.42a41.22,41.22,0,0,0,6-.87,34.56,34.56,0,0,1,6-.75l2.48,0q1.54,0,2.48,0L130,44.36h2.17a9.09,9.09,0,0,0,2.69-.6,10.11,10.11,0,0,1,2.67-.63Zm1.7-3.79-1.64,3.67q-4.78,0-14.29-.39A56.68,56.68,0,0,0,131.54,41l-.68,1.54-1.85.09a30.21,30.21,0,0,1-6.9-.75,48.63,48.63,0,0,0-6.88-1l.13-.36a25.6,25.6,0,0,0,3.88-.62,25.69,25.69,0,0,1,3.86-.62l9.38-.36-.66,1.54h.88a7.69,7.69,0,0,0,2.4-.57,8.66,8.66,0,0,1,2.38-.6ZM155,35.09l-1.67,3.7-10.12-.06a39,39,0,0,1-10-1.38l-.68,1.42L124,38.34a20.42,20.42,0,0,1-3.48-.63,17.9,17.9,0,0,0-3.53-.6l.18-.42A21.91,21.91,0,0,0,121,36.1a25.26,25.26,0,0,1,3.81-.62l9.41-.45-.63,1.45.13,0a31.43,31.43,0,0,0,5.68-.77,31.4,31.4,0,0,1,5.7-.77q1.24,0,5,.09Q153.17,35.12,155,35.09Zm1.67-3.79-1.59,3.61a76.45,76.45,0,0,1-11.58-1.35l.13,1.66L128,34.64a32.88,32.88,0,0,1-4.68-.72,21.61,21.61,0,0,0-4.68-.63l.15-.42a24.26,24.26,0,0,0,4-.59,24.29,24.29,0,0,1,4-.59l16.51-.42.13,1.54a24,24,0,0,1,3.95-1.11Zm1.72-3.82-1.62,3.64-.1,0-7.87-.36a12,12,0,0,1-2.78-.59,12,12,0,0,0-2.81-.59l.13,1.5-15.73-.39a18.39,18.39,0,0,1-3.65-.63,18.51,18.51,0,0,0-3.63-.63l.13-.39a28,28,0,0,0,4.1-.63,24.77,24.77,0,0,1,4.12-.6l14.42-.36.13,1.54h1.06a8.26,8.26,0,0,0,2.49-.56,9.29,9.29,0,0,1,2.41-.59Zm1.67-3.82-1.57,3.61-8.47-.33a21.16,21.16,0,0,1-3.49-.62,18.68,18.68,0,0,0-3.54-.59l.08,1.57-13-.36a21.34,21.34,0,0,1-4-.65,21.28,21.28,0,0,0-4-.65l.2-.42a21.82,21.82,0,0,0,3.82-.59,21.93,21.93,0,0,1,3.82-.59l12.9-.42.15,1.63a23.54,23.54,0,0,0,4-.59,27.13,27.13,0,0,1,3.92-.62Zm-17.27-.15h-5.66a41.88,41.88,0,0,1-6.68-.75,51,51,0,0,0-6.68-.87l.25-.51,2.4,0a8.31,8.31,0,0,0,2.72-.56,10.1,10.1,0,0,1,2.59-.62l10.8-.39Zm-.28-3.85-9.81-.39a5.49,5.49,0,0,1-1.83-.59,4.9,4.9,0,0,0-1.86-.56L125.52,18l.2-.51,3.74-.06a9.29,9.29,0,0,0,2.55-.54,9.32,9.32,0,0,1,2.58-.54h7.71Zm7.33,26.92-1.57,3.64-11.13-.33a5.26,5.26,0,0,1-1.81-.59,5.26,5.26,0,0,0-1.83-.59l-3.82-.09.23-.45,3.72-.06a5.66,5.66,0,0,0,2-.54,6.39,6.39,0,0,1,2-.57Zm-1.7,3.85L146.54,54l-9.08-.36a5.55,5.55,0,0,1-1.88-.6,5,5,0,0,0-1.91-.57l-3.72-.06.15-.42,3.82-.12a7.85,7.85,0,0,0,2.19-.56,7.87,7.87,0,0,1,2.19-.56Zm-1.69,3.79L145,57.49h-6.78a6,6,0,0,1-2.09-.56,6.76,6.76,0,0,0-2.06-.59l-3.87-.12.18-.42,3.74-.09a6.85,6.85,0,0,0,2.06-.56,6.93,6.93,0,0,1,2-.56Zm15.33-34.42-1.62,3.67h-.05L152,23.1a5.36,5.36,0,0,1-1.86-.6,4.81,4.81,0,0,0-1.88-.57l-3.77-.06.2-.45,3.92-.06a5.18,5.18,0,0,0,1.91-.54,5.87,5.87,0,0,1,1.86-.57Zm1.49-3.4-1.44,3.28q-.63,0-1.42,0h-3a21.17,21.17,0,0,1-5-.54,28.39,28.39,0,0,0-6.17-1l.18-.42,3.89-.15a11.43,11.43,0,0,0,2.65-.57,10.16,10.16,0,0,1,2.73-.54Z"/><path class="cls-1" d="M163.63,54.18l-2.43,3.31h-8.93a11.74,11.74,0,0,1-2.88-.87,18,18,0,0,0-4.3-.36h-.41l.15-.42,4-.12a6.12,6.12,0,0,0,1.88-.54,6.16,6.16,0,0,1,1.88-.54Zm2.71-3.76-2.66,3.64-8.85-.39a5.52,5.52,0,0,1-1.82-.57,5.49,5.49,0,0,0-1.85-.57l-3.59-.09.15-.42h1.19l1.19,0a9.52,9.52,0,0,0,2.81-.62,10.62,10.62,0,0,1,2.73-.65Zm3-4.09-2.88,3.94L158,49.84a12.11,12.11,0,0,1-3-.9,19.68,19.68,0,0,0-4.17-.3h-.38l.18-.45,3.77-.09a6.1,6.1,0,0,0,1.88-.54A6.18,6.18,0,0,1,158.1,47Zm20.61-3.55-.51,3.64q-3.06,0-8.52.09-6,.15-8.5.15a86.67,86.67,0,0,1-12-.63q-2.35-.57-7.13-1.21l.2-.42a25.77,25.77,0,0,0,4.24-.6,29.58,29.58,0,0,1,4.19-.63q5.61-.27,14-.3Q182.93,42.8,189.94,42.77Zm.61-3.79L190,42.65l-25.42-.36a25.5,25.5,0,0,1-4.25-.6,29.15,29.15,0,0,0-4.25-.66l.18-.48a23.48,23.48,0,0,0,4-.6,23.54,23.54,0,0,1,4-.6Zm.56-3.85-.53,3.67-8.85-.36a13.33,13.33,0,0,1-2.91-.57,15.3,15.3,0,0,0-2.91-.6l-1.34,1.84-8.88-.72q-2.23-.54-6.75-1.17l.18-.45a22.25,22.25,0,0,0,3.87-.59,22.25,22.25,0,0,1,3.84-.59l10.55-.36-1,1.5h.48a11.11,11.11,0,0,0,2.87-.54,14.45,14.45,0,0,1,2.77-.6Zm.56-3.82L191.15,35l-8.22-.33a7.55,7.55,0,0,1-2.17-.57,7.57,7.57,0,0,0-2.15-.57L177.49,35l-8.62-.42a21.06,21.06,0,0,1-3.52-.63,18.46,18.46,0,0,0-3.59-.6l.18-.39a22,22,0,0,0,3.92-.6,25.07,25.07,0,0,1,3.89-.63l10.39-.42-1,1.51a9,9,0,0,0,2.11-.56,7.78,7.78,0,0,1,2.11-.53Zm.61-3.79-.58,3.67-5.29-.09A16.24,16.24,0,0,1,181.18,30l-.94,1.14-7.54-.33a26.51,26.51,0,0,1-4-.66,22.86,22.86,0,0,0-4-.6l.2-.48a23.27,23.27,0,0,0,3.87-.54,26.67,26.67,0,0,1,3.84-.63l10.52-.63-.73,1.11A76.21,76.21,0,0,1,192.26,27.5Zm.56-3.85-.56,3.7q-1.77,0-4.78,0-3.54.06-4.78.06-7.08,0-9-.66a20.7,20.7,0,0,0-6.27-1l.23-.45,3.87-.09a9.24,9.24,0,0,0,2.44-.59,9.28,9.28,0,0,1,2.44-.59Zm.56-3.79-.53,3.64q-1.49,0-4.07,0-2.91.06-4,.06-6.25,0-8.12-.63a22,22,0,0,0-6.3-1.05l.15-.39,3.62-.12a10.33,10.33,0,0,0,2.54-.57,10.35,10.35,0,0,1,2.57-.57Zm-5.16,34.3-.46,3.34h-8.45a7.9,7.9,0,0,1-2.43-.56,8.86,8.86,0,0,0-2.38-.59l-3.82-.12.18-.42h1.29q1,.06,1.32.06a8.54,8.54,0,0,0,2.67-.63,9.44,9.44,0,0,1,2.62-.66Zm.58-3.76L188.27,54l-9.81-.36a4.33,4.33,0,0,1-1.63-.59,3.87,3.87,0,0,0-1.63-.56l-3.69,0,.15-.45,3.89-.12a6.16,6.16,0,0,0,1.93-.56,6.22,6.22,0,0,1,1.91-.56Zm.61-3.82-.58,3.67-9.38-.36a4.69,4.69,0,0,1-1.71-.59,4.19,4.19,0,0,0-1.71-.56l-3.72-.09.15-.42h1.11l1.11,0a9.61,9.61,0,0,0,2.77-.6,10.74,10.74,0,0,1,2.69-.63Zm4.45-30.17-.43,3.31-12.62-.36a15.14,15.14,0,0,1-2.95-.62,15.7,15.7,0,0,0-3.91-.62h-.78l.23-.42a53,53,0,0,0,5.84-.69,40.35,40.35,0,0,1,5.87-.6Z"/><path class="cls-2" d="M6.64,71.7H4.39L4,62.24,2.14,71.7H0L2.41,60.38H5.79l.35,7.93,3.93-7.93h3.42L11.08,71.7H8.92l2.27-9.39Z"/><path class="cls-2" d="M15.14,63.5h2.26l-1,4.86a7.51,7.51,0,0,0-.19,1.09.81.81,0,0,0,.27.61,1,1,0,0,0,.68.25,1.62,1.62,0,0,0,.59-.11,2.51,2.51,0,0,0,.6-.34,3.13,3.13,0,0,0,.55-.52,3.32,3.32,0,0,0,.46-.77,7.17,7.17,0,0,0,.32-1.16l.83-3.91h2.26L21,71.7H18.88l.24-1.11a4.32,4.32,0,0,1-3,1.31,2.21,2.21,0,0,1-1.62-.58,2.08,2.08,0,0,1-.59-1.55,10.31,10.31,0,0,1,.27-1.69Z"/><path class="cls-2" d="M31,71.7H28.82l.19-.89a4.16,4.16,0,0,1-1.21.83,3.42,3.42,0,0,1-1.34.25,2.74,2.74,0,0,1-2.1-.87,3.65,3.65,0,0,1-.81-2.57,6,6,0,0,1,1.13-3.56,3.51,3.51,0,0,1,3-1.59,2.8,2.8,0,0,1,2.52,1.31l.9-4.24h2.26Zm-5.21-3.34a2,2,0,0,0,.45,1.38,1.45,1.45,0,0,0,1.11.49,1.83,1.83,0,0,0,1.14-.41,2.79,2.79,0,0,0,.85-1.26,4.65,4.65,0,0,0,.32-1.63,2.08,2.08,0,0,0-.49-1.44A1.47,1.47,0,0,0,28,64.94,1.87,1.87,0,0,0,26.38,66,4.53,4.53,0,0,0,25.74,68.37Z"/><path class="cls-2" d="M36.27,65.82l-2.2-.19a3.26,3.26,0,0,1,1.32-1.71,4.46,4.46,0,0,1,2.49-.62,3.69,3.69,0,0,1,2.38.64A2,2,0,0,1,41,65.5a5,5,0,0,1-.07.79q-.07.42-.47,2.19a11.12,11.12,0,0,0-.33,2.06,4.16,4.16,0,0,0,.19,1.17H38.15a4.18,4.18,0,0,1-.17-.93,3.45,3.45,0,0,1-1.14.83,3.14,3.14,0,0,1-1.3.29,2.34,2.34,0,0,1-1.71-.67,2.31,2.31,0,0,1-.68-1.72,2.46,2.46,0,0,1,.74-1.88,4.37,4.37,0,0,1,2.65-.85,10.79,10.79,0,0,0,2.15-.32,2.71,2.71,0,0,0,.14-.74.74.74,0,0,0-.29-.59,1.34,1.34,0,0,0-.86-.24,1.65,1.65,0,0,0-1,.24A1.2,1.2,0,0,0,36.27,65.82Zm2.15,2.05a4.77,4.77,0,0,1-.54.1,5.23,5.23,0,0,0-2.22.59.89.89,0,0,0-.37.75.86.86,0,0,0,.28.65,1,1,0,0,0,.75.27,2,2,0,0,0,1-.24,1.68,1.68,0,0,0,.68-.63,4.22,4.22,0,0,0,.4-1.19Z"/><path class="cls-2" d="M43.81,63.5H46l-.22,1.07a5.9,5.9,0,0,1,1.5-1,3.77,3.77,0,0,1,1.47-.29,2.22,2.22,0,0,1,1.62.58,2,2,0,0,1,.59,1.54,9.56,9.56,0,0,1-.26,1.64l-1,4.64H47.42l1-4.66a10.1,10.1,0,0,0,.22-1.24.88.88,0,0,0-.26-.67,1,1,0,0,0-.71-.24,2,2,0,0,0-1.1.41,2.86,2.86,0,0,0-1,1.08,9,9,0,0,0-.57,2l-.72,3.37H42.07Z"/><path class="cls-2" d="M57.54,68.61l2.19.35a4.54,4.54,0,0,1-1.6,2.19,4.16,4.16,0,0,1-2.46.75A3.42,3.42,0,0,1,53.13,71a3.48,3.48,0,0,1-.94-2.57,5.8,5.8,0,0,1,.57-2.53A4.3,4.3,0,0,1,54.47,64a4.78,4.78,0,0,1,2.5-.68,3.5,3.5,0,0,1,2.36.76,2.86,2.86,0,0,1,1,2l-2.15.22a1.57,1.57,0,0,0-.43-1,1.29,1.29,0,0,0-.92-.33,1.85,1.85,0,0,0-1.22.48,3,3,0,0,0-.87,1.43,5.94,5.94,0,0,0-.3,1.79,1.6,1.6,0,0,0,.36,1.12,1.18,1.18,0,0,0,.9.39,1.7,1.7,0,0,0,1-.39A2.49,2.49,0,0,0,57.54,68.61Zm-4.14,6.28.38-.9h.45a4.39,4.39,0,0,0,1.28-.19,1.1,1.1,0,0,0,.52-.27.51.51,0,0,0,.13-.33.47.47,0,0,0-.21-.38,1.19,1.19,0,0,0-.7-.16,4.94,4.94,0,0,0-.71.07L54.8,72a4.35,4.35,0,0,1,1-.14,2,2,0,0,1,1.31.37,1.14,1.14,0,0,1,.44.9,1.37,1.37,0,0,1-.69,1.13,4.69,4.69,0,0,1-2.74.68A7.11,7.11,0,0,1,53.39,74.89Z"/><path class="cls-2" d="M64,65.82l-2.2-.19a3.26,3.26,0,0,1,1.32-1.71,4.46,4.46,0,0,1,2.49-.62,3.69,3.69,0,0,1,2.38.64,2,2,0,0,1,.77,1.56,5,5,0,0,1-.07.79q-.07.42-.47,2.19a11.12,11.12,0,0,0-.33,2.06,4.16,4.16,0,0,0,.19,1.17H65.9a4.18,4.18,0,0,1-.17-.93,3.45,3.45,0,0,1-1.14.83,3.14,3.14,0,0,1-1.3.29,2.34,2.34,0,0,1-1.71-.67,2.31,2.31,0,0,1-.68-1.72,2.46,2.46,0,0,1,.74-1.88,4.37,4.37,0,0,1,2.65-.85,10.79,10.79,0,0,0,2.15-.32,2.71,2.71,0,0,0,.14-.74.74.74,0,0,0-.29-.59,1.34,1.34,0,0,0-.86-.24,1.65,1.65,0,0,0-1,.24A1.2,1.2,0,0,0,64,65.82Zm2.15,2.05a4.77,4.77,0,0,1-.54.1,5.23,5.23,0,0,0-2.22.59.89.89,0,0,0-.37.75.86.86,0,0,0,.28.65,1,1,0,0,0,.75.27A2,2,0,0,0,65,70a1.68,1.68,0,0,0,.68-.63,4.22,4.22,0,0,0,.4-1.19Z"/><path class="cls-2" d="M69.5,69.41l2.19-.34a2.08,2.08,0,0,0,.72,1,2.14,2.14,0,0,0,1.18.28A2,2,0,0,0,74.82,70a.68.68,0,0,0,.32-.56A.58.58,0,0,0,75,69a2.89,2.89,0,0,0-.94-.42,10.19,10.19,0,0,1-2.53-1.05A1.91,1.91,0,0,1,70.75,66a2.23,2.23,0,0,1,.74-1.68,5.32,5.32,0,0,1,5.5-.4,2.52,2.52,0,0,1,1,1.57l-2.08.36a1.27,1.27,0,0,0-.53-.67,2.31,2.31,0,0,0-1.21-.3,1.74,1.74,0,0,0-1,.23.66.66,0,0,0-.31.53.59.59,0,0,0,.31.51,7.54,7.54,0,0,0,1.27.43,6.75,6.75,0,0,1,2.21.93A1.93,1.93,0,0,1,77.45,69a2.6,2.6,0,0,1-1,2,4.19,4.19,0,0,1-2.82.86,5,5,0,0,1-2.8-.65A3.24,3.24,0,0,1,69.5,69.41Z"/><path class="cls-2" d="M92.31,66.77l1.63,1a8,8,0,0,1-.59.94,5.17,5.17,0,0,1-.68.79,13.28,13.28,0,0,0,1.15,1.05L92.39,72a4.44,4.44,0,0,1-.68-.47,7.42,7.42,0,0,1-.7-.62,4.88,4.88,0,0,1-1.42.73,5.65,5.65,0,0,1-1.85.29A4,4,0,0,1,84.93,71a3,3,0,0,1-1-2.28,3.27,3.27,0,0,1,.4-1.6,4.26,4.26,0,0,1,1-1.26,9.57,9.57,0,0,1,1.51-.93,4.6,4.6,0,0,1-.51-1.9,2.61,2.61,0,0,1,.88-2,3.31,3.31,0,0,1,2.33-.81,2.86,2.86,0,0,1,2,.65,2,2,0,0,1,.73,1.51,2.75,2.75,0,0,1-.62,1.59,5.55,5.55,0,0,1-2.06,1.56q.45.74,1.12,1.7a7,7,0,0,0,.64.84A7.6,7.6,0,0,0,92.31,66.77Zm-4.62-.32a2.29,2.29,0,0,0-1.56,2,1.57,1.57,0,0,0,.46,1.17,1.69,1.69,0,0,0,1.23.46,3.55,3.55,0,0,0,1.93-.64A19.5,19.5,0,0,1,87.69,66.46ZM88.78,64A3.9,3.9,0,0,0,90.08,63a1.11,1.11,0,0,0,.27-.69.69.69,0,0,0-.22-.52.83.83,0,0,0-.59-.2,1.06,1.06,0,0,0-.79.32,1.14,1.14,0,0,0-.31.84A2.82,2.82,0,0,0,88.78,64Z"/><path class="cls-2" d="M104.35,71.7H102l2-9.43h-3.38l.4-1.89h9.08l-.4,1.89h-3.33Z"/><path class="cls-2" d="M110.49,63.5h2.11l-.34,1.59a3.23,3.23,0,0,1,2.56-1.79,2.67,2.67,0,0,1,1,.24L115,65.36a2,2,0,0,0-.65-.11,2,2,0,0,0-1.18.43,2.9,2.9,0,0,0-.94,1.15,11.33,11.33,0,0,0-.67,2.29L111,71.7h-2.26Z"/><path class="cls-2" d="M118.32,65.82l-2.2-.19a3.26,3.26,0,0,1,1.32-1.71,4.46,4.46,0,0,1,2.49-.62,3.69,3.69,0,0,1,2.38.64,2,2,0,0,1,.77,1.56,5,5,0,0,1-.07.79q-.07.42-.47,2.19a11.12,11.12,0,0,0-.33,2.06,4.16,4.16,0,0,0,.19,1.17h-2.19a4.18,4.18,0,0,1-.17-.93,3.45,3.45,0,0,1-1.14.83,3.14,3.14,0,0,1-1.3.29,2.34,2.34,0,0,1-1.71-.67,2.31,2.31,0,0,1-.68-1.72,2.46,2.46,0,0,1,.74-1.88,4.37,4.37,0,0,1,2.65-.85,10.79,10.79,0,0,0,2.15-.32,2.71,2.71,0,0,0,.14-.74.74.74,0,0,0-.29-.59,1.34,1.34,0,0,0-.86-.24,1.65,1.65,0,0,0-1,.24A1.2,1.2,0,0,0,118.32,65.82Zm2.15,2.05a4.77,4.77,0,0,1-.54.1,5.23,5.23,0,0,0-2.22.59.89.89,0,0,0-.37.75.86.86,0,0,0,.28.65,1,1,0,0,0,.75.27,2,2,0,0,0,1-.24,1.68,1.68,0,0,0,.68-.63,4.22,4.22,0,0,0,.4-1.19Z"/><path class="cls-2" d="M125.87,63.5H128l-.22,1.07a5.9,5.9,0,0,1,1.5-1,3.77,3.77,0,0,1,1.47-.29,2.22,2.22,0,0,1,1.62.58,2.05,2.05,0,0,1,.59,1.54,9.61,9.61,0,0,1-.26,1.64l-1,4.64h-2.26l1-4.66a10.1,10.1,0,0,0,.22-1.24.88.88,0,0,0-.26-.67,1,1,0,0,0-.71-.24,2,2,0,0,0-1.1.41,2.86,2.86,0,0,0-1,1.08,9,9,0,0,0-.57,2l-.72,3.37h-2.26Z"/><path class="cls-2" d="M133.64,69.41l2.19-.34a2.07,2.07,0,0,0,.72,1,2.13,2.13,0,0,0,1.18.28A2,2,0,0,0,139,70a.68.68,0,0,0,.32-.56.58.58,0,0,0-.17-.4,2.9,2.9,0,0,0-.94-.42,10.18,10.18,0,0,1-2.53-1.05,1.91,1.91,0,0,1-.76-1.58,2.24,2.24,0,0,1,.74-1.68,4.28,4.28,0,0,1,3.06-1,4.24,4.24,0,0,1,2.44.58,2.52,2.52,0,0,1,1,1.57l-2.08.36a1.27,1.27,0,0,0-.54-.67,2.31,2.31,0,0,0-1.21-.3,1.73,1.73,0,0,0-1,.23.66.66,0,0,0-.31.53.59.59,0,0,0,.31.51,7.5,7.5,0,0,0,1.27.43,6.77,6.77,0,0,1,2.21.93,1.94,1.94,0,0,1,.79,1.54,2.6,2.6,0,0,1-1,2,4.19,4.19,0,0,1-2.81.86,5,5,0,0,1-2.8-.65A3.24,3.24,0,0,1,133.64,69.41Z"/><path class="cls-2" d="M144.56,63.5h2.14l-.18.84a5.13,5.13,0,0,1,1.28-.8,3.42,3.42,0,0,1,1.28-.24,2.7,2.7,0,0,1,2.11.89,3.85,3.85,0,0,1,.8,2.65,5.4,5.4,0,0,1-1.38,3.75,3.65,3.65,0,0,1-2.79,1.31,2.79,2.79,0,0,1-2.51-1.32l-.9,4.26h-2.26Zm1.36,4.71a2.15,2.15,0,0,0,.48,1.49,1.46,1.46,0,0,0,1.12.53,1.75,1.75,0,0,0,1.08-.4,2.89,2.89,0,0,0,.86-1.32,5,5,0,0,0,.34-1.71,2,2,0,0,0-.45-1.41,1.48,1.48,0,0,0-1.14-.49,1.77,1.77,0,0,0-1.17.45,2.89,2.89,0,0,0-.82,1.33A5,5,0,0,0,145.92,68.2Z"/><path class="cls-2" d="M153,68.3a5,5,0,0,1,1.31-3.63,4.56,4.56,0,0,1,3.44-1.36,4,4,0,0,1,2.89,1,3.56,3.56,0,0,1,1,2.69,5,5,0,0,1-1.3,3.45A4.43,4.43,0,0,1,157,71.9a4.55,4.55,0,0,1-2.09-.46,3.05,3.05,0,0,1-1.36-1.31A3.85,3.85,0,0,1,153,68.3Zm6.43-1.58a1.73,1.73,0,0,0-.47-1.26,1.62,1.62,0,0,0-1.21-.47,2,2,0,0,0-1.3.44,2.85,2.85,0,0,0-.88,1.29,4.49,4.49,0,0,0-.32,1.56,2,2,0,0,0,.49,1.4,1.61,1.61,0,0,0,1.23.52,1.93,1.93,0,0,0,1.56-.78A4.13,4.13,0,0,0,159.48,66.71Z"/><path class="cls-2" d="M164.18,63.5h2.11l-.34,1.59a3.23,3.23,0,0,1,2.56-1.79,2.67,2.67,0,0,1,1,.24l-.86,1.82a2,2,0,0,0-.65-.11,2,2,0,0,0-1.18.43,2.91,2.91,0,0,0-.94,1.15,11.36,11.36,0,0,0-.67,2.29l-.55,2.57h-2.26Z"/><path class="cls-2" d="M169.39,65.14l.35-1.65h1.1l.27-1.31,2.59-1.53-.61,2.84h1.38l-.35,1.65h-1.38L172,68.58a10.54,10.54,0,0,0-.2,1.07.5.5,0,0,0,.17.4.93.93,0,0,0,.6.14l.75-.05L173,71.78a6.13,6.13,0,0,1-1.2.12,2.7,2.7,0,0,1-1.74-.45,1.55,1.55,0,0,1-.54-1.25,11.49,11.49,0,0,1,.29-1.75l.7-3.3Z"/><path class="cls-2" d="M182.32,68.29h-5.66c0,.09,0,.15,0,.2a1.84,1.84,0,0,0,.48,1.32,1.53,1.53,0,0,0,1.16.5A1.93,1.93,0,0,0,180,69.17l2,.33a4,4,0,0,1-3.79,2.4,3.61,3.61,0,0,1-3.79-3.82,5,5,0,0,1,1-3,4.31,4.31,0,0,1,3.7-1.78,3.24,3.24,0,0,1,2.44.93,3.59,3.59,0,0,1,.9,2.61A6.1,6.1,0,0,1,182.32,68.29Zm-1.9-1.35c0-.1,0-.17,0-.22a2,2,0,0,0-.42-1.37,1.44,1.44,0,0,0-1.12-.46,1.79,1.79,0,0,0-1.25.52,2.74,2.74,0,0,0-.75,1.53Z"/><path class="cls-2" d="M182.85,69.41l2.19-.34a2.07,2.07,0,0,0,.72,1,2.13,2.13,0,0,0,1.18.28,2,2,0,0,0,1.24-.34.68.68,0,0,0,.32-.56.58.58,0,0,0-.17-.4,2.9,2.9,0,0,0-.94-.42,10.18,10.18,0,0,1-2.53-1.05A1.91,1.91,0,0,1,184.1,66a2.24,2.24,0,0,1,.74-1.68,4.28,4.28,0,0,1,3.06-1,4.24,4.24,0,0,1,2.44.58,2.52,2.52,0,0,1,1,1.57l-2.08.36a1.27,1.27,0,0,0-.54-.67,2.31,2.31,0,0,0-1.21-.3,1.73,1.73,0,0,0-1,.23.66.66,0,0,0-.31.53.59.59,0,0,0,.31.51,7.5,7.5,0,0,0,1.27.43,6.77,6.77,0,0,1,2.21.93A1.94,1.94,0,0,1,190.8,69a2.6,2.6,0,0,1-1,2,4.19,4.19,0,0,1-2.81.86,5,5,0,0,1-2.8-.65A3.24,3.24,0,0,1,182.85,69.41Z"/><path class="cls-2" d="M208.75,35.36l-.44.74a5.1,5.1,0,0,1-1.13.59A9.92,9.92,0,0,0,204.41,39a6.32,6.32,0,0,1-2.63,2.06q-.1,0-.49.42a3,3,0,0,1-.91.66,4.65,4.65,0,0,0-1.3,1.15,5.94,5.94,0,0,1-1.2,1.15A3.22,3.22,0,0,0,197,46a4,4,0,0,1-2.11,1.72.88.88,0,0,0-.2.64q0,2.11,1.71,2.11a1.58,1.58,0,0,0,.49-.1,8.8,8.8,0,0,1,1.35-.22,3.15,3.15,0,0,0,1.45-.42,2.48,2.48,0,0,1,1.42-.29h.2l1,.1,3.39-.69.69-.29,1.62.1a2.51,2.51,0,0,0,1.2-.42,4.75,4.75,0,0,1,1.1-.52.29.29,0,0,1,.2-.1l1.33.1,1.72-.59,2.31-.29a27.72,27.72,0,0,1,3.24-.1,13.94,13.94,0,0,1,1.77.2.67.67,0,0,0,.44.1c.13,0,.52,0,1.15-.15a11.61,11.61,0,0,1,1.74-.15q3.34,0,3.63,1.52l1.08,2.21a4.53,4.53,0,0,1,.64,1.57v.44l-.25.69.1.69q0,1.52-.69,1.77a2.69,2.69,0,0,0-1,.54h-.1a2.93,2.93,0,0,1-2.46-1.82l-.59.25-.88-.34a2.38,2.38,0,0,1-1.23.25,4.06,4.06,0,0,1-1.42-.83h-.2a2.7,2.7,0,0,0-.83.2,2.68,2.68,0,0,1-.74.2,1.38,1.38,0,0,1-.42-.15,1.31,1.31,0,0,0-.52-.15,10.2,10.2,0,0,0-2.11.59l-6.83,1.13-1.23-.2a4.17,4.17,0,0,0-2.41.74,1.58,1.58,0,0,1-.69.34L203.5,56l-7.21,1.23q-.3,0-.76-.44c-.31-.33-.53-.49-.66-.49a3.23,3.23,0,0,0-.34.81,1.1,1.1,0,0,1-1.18.71A4.84,4.84,0,0,1,190,56.73a.68.68,0,0,0-.44-.1l-1-.25a3.11,3.11,0,0,0-.49-1l-.44-1.33-.59-1a4.34,4.34,0,0,1-.49-2.21q0-4.12,1.4-5.43a5.61,5.61,0,0,0,1.5-1.74,20.88,20.88,0,0,1,4.76-5.21l2.11-2.11a1.72,1.72,0,0,1,.29-.22q.2-.12,1.74-1.4T200.62,33q.74-.49,2.11-1.57l2.36-1.77a28.22,28.22,0,0,1,5-3.44l.29-.29,1-.29L212,25a3.1,3.1,0,0,1,1.92-.59L217.81,22l1.87-.74q1-.49,2.19-1.15a10.67,10.67,0,0,1,2.58-1l1.33-.54,1-.88a7.78,7.78,0,0,1,1.54-.76A7.12,7.12,0,0,0,230,16a10.91,10.91,0,0,1,2.23-1.2,2.27,2.27,0,0,0,1.62-2.09c0-.62-.35-1-1.06-1.08a3.75,3.75,0,0,1-1.62-.54,2.52,2.52,0,0,0-.66-.39l-2.69.1-.64-.2a7,7,0,0,0-1.28-.25,4.34,4.34,0,0,0-1.33.22,3.8,3.8,0,0,1-1.08.22L222,10.31q-.49.15-2.6,1l-.44.1a1.07,1.07,0,0,1-.69.39l-1.28-.1-2.26,1a5,5,0,0,1-1.4.79,3.39,3.39,0,0,0-1.06.54,1.38,1.38,0,0,1-.83.34L210.14,14q-.29,0-.69.52t-.69.52q-2.11,0-2.11-4.13A4.62,4.62,0,0,1,208,8a3.64,3.64,0,0,1,2.53-1.55l3.83-.54q.19,0,1.33.2h.2l1.33-.69a3.22,3.22,0,0,1,.79-.2l1.52.1,3.58-.49,4.27.44q2,.25,2.49.34l1,.1q2,0,4.61,3.93a12.94,12.94,0,0,0,1.3,1.72,5.35,5.35,0,0,1,1.1,3.54,4,4,0,0,1-1.08,2.41l-.2.59a18,18,0,0,1-1.6,2.26,4.09,4.09,0,0,1-3.12,2l-1-.1a.76.76,0,0,0-.69.29l-3.63,2.41a10.54,10.54,0,0,1-2.5,1.52l-.69.49-.93.2a6,6,0,0,0-1,1q-.79.91-1.23.91l-1.33-.1q-.59,0-1.79,1.15a18.78,18.78,0,0,1-2.43,2l-.79.88-1.4.47a3.52,3.52,0,0,0-1.57.91,2.64,2.64,0,0,1-1.25.79Q208.85,35.17,208.75,35.36Z"/><path class="cls-2" d="M279.46.59l.69.79.69.49a2.72,2.72,0,0,1,.74,2q0,1.62-1.23,1.92-.29.29-3.09.29l-.64.54a2,2,0,0,0-1,.59q-1,1.43-1.92,1.42l-1-.2a3.55,3.55,0,0,0-1.08,1.3,3.78,3.78,0,0,1-2.21,1.5,5.6,5.6,0,0,0-.66,1.25A2,2,0,0,1,267,13.7q-1.25.15-1,.44-.69.93-1,.93a1.6,1.6,0,0,0-1.4.79,4.5,4.5,0,0,1-1.74,1.42q-.39.59-1.25,1.62a4.2,4.2,0,0,0-1,1.92,1.67,1.67,0,0,1-1.23,1.28q-.34,0-.86,1.25a3.92,3.92,0,0,1-2,2q-.93,1.91-1.47,1.92l-1.23-.74a3.35,3.35,0,0,1-.79,2.31l-.34.74a6,6,0,0,1-.79,1.18.29.29,0,0,1,.2.1h.39a2.72,2.72,0,0,0,1.23-.29q.93-1.72,4.62-2.11l.39-.1q.15-.44,1.79-.71a8.52,8.52,0,0,0,2.36-.64,7.21,7.21,0,0,1,2.63-.47l1.67-.2a7.59,7.59,0,0,1,1.82-.29.73.73,0,0,1,.47.29.77.77,0,0,0,.56.29,3.1,3.1,0,0,0,.88-.15,2.92,2.92,0,0,1,.79-.15c.16,0,.31.13.44.39l.2.2a1.55,1.55,0,0,1,.39-.29,7.79,7.79,0,0,0,1.42.64q.74.25,2.63,2.75a8.6,8.6,0,0,1,1.89,5.25l.1.93a.87.87,0,0,1,.1.39,1.75,1.75,0,0,1-.25.76,4.48,4.48,0,0,0-.29,1.72q0,1.25-1.77,1.55a10.82,10.82,0,0,1-1.42,2.31l-.88,1.23-.74.29a3,3,0,0,0-1.3,1.5,6.58,6.58,0,0,1-1.15,1.72q-.54.52-1.65,1.72a11.06,11.06,0,0,1-1.69,1.6l-.54.49A6.22,6.22,0,0,1,263,53.29l.2.59c0,.26-.24.55-.71.86a2.34,2.34,0,0,1-1.2.47l-.2-.1h-.29q-.2,0-.42.49t-1.52,1a16.8,16.8,0,0,0-2.46,1.11,5.8,5.8,0,0,1-1.87.74,16.75,16.75,0,0,0-2.73.84,3.81,3.81,0,0,1-2-.49h-.2a1.85,1.85,0,0,1-1.18.49,2.78,2.78,0,0,1-.91-.25,8.28,8.28,0,0,0-1.57-.42,7.15,7.15,0,0,1-2.06-.76,9.14,9.14,0,0,0-1.65-.74,1,1,0,0,1-.71-.52,1.62,1.62,0,0,0-.66-.66,7.15,7.15,0,0,1-3.63-4.22,2.75,2.75,0,0,0-.66-1.6,4.82,4.82,0,0,1-.79-2.43q-.32-2-.32-2.31a18.09,18.09,0,0,1,.47-1.94,5.55,5.55,0,0,1,.91-2.19,7.79,7.79,0,0,0,1-3,8,8,0,0,1,1.69-2.68,6.36,6.36,0,0,0,1.4-1.94,4.28,4.28,0,0,1,.52-.54,3.93,3.93,0,0,0,.81-1.4,1.8,1.8,0,0,1,1.08-1.2l.54-.29a11,11,0,0,1,.88-1.33q.1-1.38,2.6-3.93l.2-.49a4.45,4.45,0,0,1,2.75-1.82.57.57,0,0,0,.2-.39,6.06,6.06,0,0,0-.1-.79v-.1a2.25,2.25,0,0,1,1.2-2,9.17,9.17,0,0,0,2.09-1.67,14.92,14.92,0,0,1,1.92-1.74,5.35,5.35,0,0,0,1.28-1.2,3.77,3.77,0,0,1,1-1A3.44,3.44,0,0,0,259,12.4a3.88,3.88,0,0,1,1.33-1.4,7.73,7.73,0,0,0,1.6-1.45,3.92,3.92,0,0,1,1.77-1.18,2.57,2.57,0,0,0,1.55-1.23,1.33,1.33,0,0,1,1.28-.81L268,5.89a1.1,1.1,0,0,0,.71-.71,1,1,0,0,1,.61-.66,6.26,6.26,0,0,1,2.63-1.89,5,5,0,0,0,1.69-.79,3,3,0,0,1,.83-.56,6.5,6.5,0,0,0,1-.54,2.24,2.24,0,0,1,1-.39,8.38,8.38,0,0,0,1.1-.2,4.46,4.46,0,0,1,.81-.15A1.55,1.55,0,0,1,279.46.59ZM242,54l2-.1,1.48-.29a1.75,1.75,0,0,1,.64-.1,2.64,2.64,0,0,1,.84.15,2.37,2.37,0,0,0,.64.15,6.16,6.16,0,0,0,3-1.28l1.72-.83A3.23,3.23,0,0,1,255,50.39q1-.44,1.08-1.13a4.06,4.06,0,0,1,.93-.39,9.09,9.09,0,0,0,1.6-1.28,22.74,22.74,0,0,1,2.63-2,12.51,12.51,0,0,0,2.46-2.19,14,14,0,0,1,1.53-1.57,8,8,0,0,0,2-1.25,1.69,1.69,0,0,0,.22-1,8.59,8.59,0,0,0,1.7-1.67,11.61,11.61,0,0,1,1.3-1.52l.44-.79a1.18,1.18,0,0,1,.79-.74l.1-.2v-.79a4.12,4.12,0,0,0,1-1.72q0-.59-1.87-1.13a2.21,2.21,0,0,1-.83.44l-.88-.44h-.1l-1.62.29-1-.2a1.47,1.47,0,0,0-.91.37,1.49,1.49,0,0,1-.91.37,1.24,1.24,0,0,0-.84.29,1,1,0,0,1-.54.29L262,32.07q-.84.88-1.28.88a6.28,6.28,0,0,0-.74-.39q-1.08,1.28-1.62,1.28a2.7,2.7,0,0,1-.69-.39q-1.38,0-1.65.42a1.27,1.27,0,0,1-.52.52.65.65,0,0,0-.34.49q-1.28.79-1.33.83l-1-.1q-.2,0-1.16,1.11t-1.16,1.11l-1.13-.64a12.29,12.29,0,0,0-1.75,2,3.69,3.69,0,0,1-1.28,1.25,6,6,0,0,0-1.7,1.82.57.57,0,0,0-.39-.2q-.3,0-.49.59c0-.23,0-.26-.12-.1a7.58,7.58,0,0,0-.32.81,4,4,0,0,1-.49,1,3.63,3.63,0,0,0-.49,1.2l-.39.93a5.23,5.23,0,0,0-.47,1.06,5.54,5.54,0,0,1-.57,1.2,4.86,4.86,0,0,0-.49,1.77l-.49.88a2.43,2.43,0,0,0,.81,2Q241.62,54,242,54Z"/><path class="cls-1" d="M216.5,68.15l.27-.23a.27.27,0,0,0,.3-.23.54.54,0,0,1,.36-.36,1.39,1.39,0,0,0,.58-.54q.27-.41.55-.41c.07,0,.14.06.23.17a.49.49,0,0,1,.13.27,2.29,2.29,0,0,1-.33,1.14l-.07.47-.12.22a.73.73,0,0,0-.33.28,1.2,1.2,0,0,1-.39.37l-.17.23a.76.76,0,0,0-.49.38.47.47,0,0,1-.35.3.9.9,0,0,0-.49.33,2.37,2.37,0,0,1-.4.15l0,.17a1.2,1.2,0,0,1-.53.27,2.85,2.85,0,0,0-.54.19.67.67,0,0,1-.24.09,1.35,1.35,0,0,1-.58-.13,1.81,1.81,0,0,0-.55-.16.39.39,0,0,1-.12-.22.73.73,0,0,0-.17-.31.83.83,0,0,1-.15-.53l.07-.32a.29.29,0,0,0-.08-.17.29.29,0,0,1-.08-.17.14.14,0,0,1,0-.1.14.14,0,0,0,0-.1.61.61,0,0,0,0-.18.55.55,0,0,1,0-.17l.1-.82c0-.07,0-.1-.07-.1s-.13.06-.24.17a.58.58,0,0,1-.41.17.77.77,0,0,0-.22.42,1.45,1.45,0,0,1-.33.3l-.07.1c0,.08-.11.14-.25.19a.6.6,0,0,0-.3.19l-.17.17-.32,0a2.47,2.47,0,0,0-.18.29,1.34,1.34,0,0,1-.38.43l-1.27,1q-.2.13-.58.33l-.1.1a4.39,4.39,0,0,1-1.89.89,2.81,2.81,0,0,1-1.05-.25q-.6-.25-.65-.6l-.17-.69a1.2,1.2,0,0,1-.15-.65.69.69,0,0,1,0-.27v-.1l0-.55c0-.13.11-.2.32-.2l0-.45a2.39,2.39,0,0,1,.29-.53,2.36,2.36,0,0,1,.39-.53l.17-.22a.55.55,0,0,1,.23-.43,2.31,2.31,0,0,0,.4-.46,2,2,0,0,1,.57-.52l.5-.5a5,5,0,0,1,1.27-.94,1.71,1.71,0,0,0,.41-.33,2,2,0,0,1,.7-.44,4.77,4.77,0,0,0,.77-.36,1.32,1.32,0,0,1,.59-.22h.13a6.94,6.94,0,0,0,.89-.42h.1a1,1,0,0,1,.32.13h0l.27-.13a.37.37,0,0,1,.17,0q1,0,1.14,1.44c0,.2.08.3.17.3s.27-.2.48-.61a1.33,1.33,0,0,1,1.31-.61q.72,0,.72.92a2.89,2.89,0,0,1-1,2.06,1.18,1.18,0,0,0-.1.3l-.23.69v0a.51.51,0,0,1-.14.28.52.52,0,0,0-.14.31l0,.42-.07.47a.55.55,0,0,0,.12.42,1.37,1.37,0,0,0,.78-.44,1.15,1.15,0,0,1,.34-.34l.17-.07A1.65,1.65,0,0,1,216.5,68.15Zm-5.55,0a.78.78,0,0,1,.41-.56.82.82,0,0,0,.41-.39,8.73,8.73,0,0,0,.91-.84q.59-.6.59-.74s0,0-.07,0h0l-.13.08-.3,0-.32,0-.23-.12-.22,0-.33-.07a.92.92,0,0,0-.46.11,3.31,3.31,0,0,1-.74.24,2.69,2.69,0,0,0-1,.46,1.34,1.34,0,0,1-.64.33,2.53,2.53,0,0,1-.79.72.77.77,0,0,0-.52.58q-.44.35-.44.4l-.12.28a1.1,1.1,0,0,1-.33.19.38.38,0,0,0-.23.35.93.93,0,0,1-.23.5A.65.65,0,0,0,206,70q0,.82.32.82a2,2,0,0,0,.56-.18,2.18,2.18,0,0,0,.49-.24.73.73,0,0,1,.27-.13l.32-.17a.29.29,0,0,1,.15-.08.31.31,0,0,0,.17-.11,1.08,1.08,0,0,1,.3-.2.81.81,0,0,0,.33-.29l.92-.52.35-.27a1.23,1.23,0,0,0,.45-.28A.86.86,0,0,1,210.95,68.15Z"/><path class="cls-1" d="M233.17,69.19h.07l.17.07a.1.1,0,0,0,.07,0,.59.59,0,0,1,.27-.48.76.76,0,0,1,.38-.49l.93-.55.42-.37.2-.1.13-.17a.5.5,0,0,1,.35-.22c.17,0,.25.06.25.18l-.15.33.07.55a.78.78,0,0,1-.21.54l-.64.69-.85.9-.45.23a1.55,1.55,0,0,0-.3.23l-.65.55a.42.42,0,0,1-.15.35h-.27l-.13.07a1.36,1.36,0,0,1-.69.62l-.23.17a.35.35,0,0,1-.22.1L231,72.3l-.32.07a.78.78,0,0,1-.36-.13,2.25,2.25,0,0,0-.46-.21q-.23-.08-.59-.62a2.9,2.9,0,0,1-.39-.71.64.64,0,0,0-.08-.23.79.79,0,0,1-.08-.19,2,2,0,0,1,.15-.33v0a.78.78,0,0,0-.09-.23,1,1,0,0,1-.09-.45,1,1,0,0,0-.1-.38c.09-.09.13-.16.13-.2a.58.58,0,0,0,0-.19.56.56,0,0,1-.05-.19l.1-.82L228.7,67l0-.4c0-.23-.1-.35-.3-.35a.56.56,0,0,0-.33.18l-.12,0a3.9,3.9,0,0,0-.63.36A.62.62,0,0,1,227,67a.93.93,0,0,1-.38.18l-.13.1a2.08,2.08,0,0,1-.27.2,3.79,3.79,0,0,1-.62.56q-.63.51-1.12,1a2,2,0,0,1-.72.49c-.15,0-.22.17-.22.43,0,0-.1.13-.3.27a2.13,2.13,0,0,0-.35.37,1.49,1.49,0,0,0-.3-.2c-.15,0-.25.18-.32.55q-.1.22-.54.27a.7.7,0,0,0-.12.25l-.07.07h-.17a.92.92,0,0,0-.24.19,1,1,0,0,1-.35.24q-.22.45-.37.45a.46.46,0,0,1-.19-.07,1.59,1.59,0,0,0-.31-.12q-.18,0-.41-.41a1.22,1.22,0,0,1-.23-.61q0-1.86.72-2l0-.07v-.13a.32.32,0,0,1,.19-.31,1.12,1.12,0,0,0,.39-.37,1.29,1.29,0,0,1,.27-.31h.22s.07-.12.07-.35a.26.26,0,0,1,.08-.18.38.38,0,0,0,.1-.24,1.5,1.5,0,0,1,.24-.52,1.61,1.61,0,0,0,.23-.43l0-.07a1.63,1.63,0,0,1-.6.42q-.18,0-.5.49l-.27-.05a6.49,6.49,0,0,1-.87.59.93.93,0,0,0-.37.38.13.13,0,0,1-.12.13,1.85,1.85,0,0,0-.44.27h-.1q-.42,0-.42-.6l.35-1a1.41,1.41,0,0,1,.71-.76,8.49,8.49,0,0,0,.94-.59,1.4,1.4,0,0,1,.77-.3L221,65a1.28,1.28,0,0,0,.77-.69q.2-.47.55-.47a1.62,1.62,0,0,1,1.4.68,2.09,2.09,0,0,1,.48,1.08l0,.45a3,3,0,0,1-.1.65,1,1,0,0,0-.2.45c0,.09.06.13.17.13a.48.48,0,0,0,.27-.14,2.39,2.39,0,0,1,.38-.26.54.54,0,0,0,.24-.2,1,1,0,0,1,.58-.55,1.65,1.65,0,0,0,.52-.25l.17-.13.13-.25a1.89,1.89,0,0,0,.6-.37.71.71,0,0,1,.4-.22,1.41,1.41,0,0,0,.57-.3l.25-.07.23-.13a.59.59,0,0,1,.2-.08l.49-.18a1.38,1.38,0,0,1,1.79.56,2.12,2.12,0,0,1,.49,1.1l0,.3.07.45v.07l-.13.92,0,.32A1.42,1.42,0,0,1,231,69c-.06,0-.08.08-.08.17v.15l.33.7q.15.37.23.37l.54-.15a.65.65,0,0,0,.39-.35,2.5,2.5,0,0,0,.47-.4C232.92,69.28,233,69.19,233.17,69.19Z"/><path class="cls-1" d="M245,70.73l-.79.69a.19.19,0,0,0-.13-.07q-.17,0-.41.3t-.34.3l-.17,0a2.22,2.22,0,0,1-.6.37,2.35,2.35,0,0,0-.44.18,1.24,1.24,0,0,1-.47.15.55.55,0,0,0-.34.14,1.07,1.07,0,0,1-.65.13l-.27,0a.94.94,0,0,1-.28.1.43.43,0,0,1-.29-.14.55.55,0,0,0-.33-.16.57.57,0,0,1-.36-.23,1.25,1.25,0,0,0-.34-.3.7.7,0,0,1-.26-.23l-.23-.2a2,2,0,0,1-.55-.74,2.06,2.06,0,0,1-.27-.84V70l0-.32,0-.37a1.05,1.05,0,0,0,.17-.28v-.54l.4-1.34c0-.06,0-.13-.13-.22a.68.68,0,0,1-.33.3.33.33,0,0,0-.23.23c0,.12-.1.18-.19.18l-.2-.07a1.73,1.73,0,0,0-.15.34.42.42,0,0,1-.4.31c-.2,0-.3-.08-.3-.23l0-.3-.1-.42a1.33,1.33,0,0,1,.27-.53,1,1,0,0,1,.49-.45.65.65,0,0,0,.38-.32,2.49,2.49,0,0,1,.7-.63.84.84,0,0,0,.52-.43,1.87,1.87,0,0,1,.61-.3,1.19,1.19,0,0,0,.57-.34,4.55,4.55,0,0,1,1.14-.7,3.61,3.61,0,0,1,1.38-.48,1.31,1.31,0,0,0,.37-.08l.44-.13a1.9,1.9,0,0,0,.42-.18.77.77,0,0,1,.35-.12l.49.17a4,4,0,0,1,.65.22,1.63,1.63,0,0,0,.34.14,4,4,0,0,1,.64.29.72.72,0,0,1,.33.69,3.18,3.18,0,0,0-.28.45s.13.11.38.2c.09.17.22.38.4.65l.18.58,0,1.37,0,.13c-.12.11-.18.18-.18.22l0,.33-.13.47a.41.41,0,0,1-.17.28.31.31,0,0,0-.15.17l-.1.13a3,3,0,0,0-.14.29,1.24,1.24,0,0,1-.24.38.58.58,0,0,0-.17.32.38.38,0,0,1-.17.27.61.61,0,0,0-.19.17A.47.47,0,0,1,245,70.73Zm-5.2.43.07.38,0,0h.27l.08,0a2.79,2.79,0,0,0,.5.07,1.24,1.24,0,0,0,.83-.26.9.9,0,0,1,.49-.26c.12,0,.22-.08.31-.25s.14-.25.16-.25h.23l.07,0a.57.57,0,0,1,.34-.55,1,1,0,0,0,.48-.44,1.23,1.23,0,0,1,.33-.42.71.71,0,0,0,.25-.38l.13-.2a.35.35,0,0,0,.07-.25l.32-.6a3,3,0,0,0,.1-.65.61.61,0,0,0-.36-.55.82.82,0,0,1-.36-.79.93.93,0,0,1,.39-.71q.39-.33.39-.39a.09.09,0,0,0-.1-.1,2.13,2.13,0,0,0-.38.13q-.12.23-1.18.62l-.38-.17c-.07,0-.13.07-.2.2a.9.9,0,0,1-.2.28h-.22s-.09.07-.22.22a.58.58,0,0,1-.47.22l-.2.2a.71.71,0,0,1-.33.55l-.18.22q-.17.2-.43.47l-.3.75a1.9,1.9,0,0,0-.18.65.59.59,0,0,1-.23.21.32.32,0,0,0-.17.28s0,.08.12.17a.38.38,0,0,1,.12.2l-.07.22-.07.62Z"/><path class="cls-1" d="M251.29,64.49l.23-.42a2.08,2.08,0,0,1,.26-.31,2.18,2.18,0,0,0,.34-.82,2.38,2.38,0,0,1,.41-.91.84.84,0,0,1,.66-.25,1.42,1.42,0,0,1,.66.24,2.75,2.75,0,0,1,.8,1.46,6.65,6.65,0,0,1,.39,1.72,1.52,1.52,0,0,0,.12.51,3.34,3.34,0,0,1,.15.48,2,2,0,0,0-.13.32l0,.69-.2.55v.4a1.34,1.34,0,0,0-.2.42.37.37,0,0,0,.07.2,2.85,2.85,0,0,0,1-.54.73.73,0,0,1,.33-.26,1.74,1.74,0,0,0,.53-.43l.32-.17.28-.36a.65.65,0,0,1,.28-.23,1.81,1.81,0,0,0,.38-.23,4.56,4.56,0,0,1,.63-.38l.17-.2a1.88,1.88,0,0,1,.59-.45,2.6,2.6,0,0,1,.38-.17c.08,0,.16.1.24.31a1.63,1.63,0,0,1,.13.61.76.76,0,0,1-.33.56,4.74,4.74,0,0,0-.44.41,1.09,1.09,0,0,1-.53.23s-.21.24-.55.68l-.33.2-.17.22s-.17.09-.45.13c0,0,0,.06-.08.17s-.16.19-.36.23a4.35,4.35,0,0,0-.62.62l-.35.07a1.15,1.15,0,0,1-.17.38c-.27.07-.42.18-.45.33l-.17.07-.07,0a1.74,1.74,0,0,1-.75.37l-.38.1-.13.2q0,.08-.41.22a1.52,1.52,0,0,0-.61.33l-.28.22a1.67,1.67,0,0,0-.65.37h-.23a1.6,1.6,0,0,0-.74.34,1.59,1.59,0,0,1-.8.34,2.56,2.56,0,0,1-1.33-.24,2.1,2.1,0,0,1-.59-.6,4.88,4.88,0,0,0-.43-.58.61.61,0,0,1-.19-.35.31.31,0,0,1,.16-.23,1.38,1.38,0,0,0,.34-.48q.18-.36.94-.46l.24-.1a.84.84,0,0,1,.34-.1c.11,0,.25.1.42.3,0,0,0,0,.07,0l.27,0a.6.6,0,0,0,.25.13,1.33,1.33,0,0,0,.85-.4l.07,0h.13s.09-.09.17-.28l.28-.59.58-.75v-.17a1.42,1.42,0,0,1,.1-.3v-.25c0-.1.07-.16.2-.19s.2-.1.2-.21l0-.13a.57.57,0,0,1-.13-.28l.17-.33,0-.35.07-.13a2,2,0,0,1-.07-.27l.07-.42s0-.12-.09-.32-.11-.3-.14-.3-.28.17-.64.52a3.33,3.33,0,0,0-.64.74.93.93,0,0,1-.43.39,1,1,0,0,0-.44.39.44.44,0,0,1-.29.25l-1.12.9-1.22.9c-.09.1-.15.15-.17.15q-.62,0-.62-.69a2.44,2.44,0,0,1,.25-.79l.18-.1s.06,0,.06-.05,0,0,0,0l.1.07h0a5.46,5.46,0,0,1,.8-.49.68.68,0,0,0,.33-.37l.7-.5a10.06,10.06,0,0,0,.82-.74A4.8,4.8,0,0,0,251.29,64.49Z"/></g></g></svg>