<svg xmlns="http://www.w3.org/2000/svg" viewBox="0 0 52.4 34.91"><defs><style>.cls-1{fill:#fff;}.cls-1,.cls-2,.cls-3,.cls-4{fill-rule:evenodd;}.cls-2{fill:#eb7900;}.cls-3{fill:#ea7129;}.cls-4{fill:#ffef00;}</style></defs><title>hiperCard</title><g id="Layer_2" data-name="Layer 2"><g id="Camada_1" data-name="Camada 1"><polygon class="cls-1" points="0 0 52.41 0 52.41 34.91 0 34.91 0 0 0 0"/><path class="cls-2" d="M10.49,34.91H45.19c.14-.17.25-.2.45-.4a3.91,3.91,0,0,0,1-1.67,6.33,6.33,0,0,0,.21-3.09c-.37-1.9-.92-3.88-1.38-5.79L41.3,6.61a6.2,6.2,0,0,0-3.08-4.09c-2-1.14-3.66-.87-5.92-.32-1.95.47-3.84.93-5.79,1.39-1,.24-16,3.71-17.28,4.23a6.12,6.12,0,0,0-3.52,3.66c-.68,2,.11,4.17.57,6.1l2.8,11.54c.45,1.91,1,3.88,1.4,5.8Z"/><path class="cls-1" d="M40.6,20.59l-.07-1.24-1.94,0,.06,7.14,2.24,0c0-1.22,0-2.44,0-3.62s.83-1.76,2.17-1.57V19.18C41,19.08,41,20.33,40.6,20.59Zm-3.14,5.62-.28-1.49a10.81,10.81,0,0,1-2.46.2c-.71-.1-1.57-.53-1.51-1.29H37.8c.18-2.09-.36-3.73-2-4.29A3.58,3.58,0,0,0,31.49,21c-1.06,2.08-.38,5.5,3.13,5.6a8.45,8.45,0,0,0,2.84-.43Zm-27.31.26h2.26V22.38h3.68v4.09h2.27V16.55H16.09v3.8H12.42v-3.8H10.15v9.92Zm14.94-6.1c-.06-1.33.45-.94-2-1l.07,5.54a1.21,1.21,0,0,1-1.09-.71c-.42-.83-.29-2.7-.29-3.67V19.33H19.56a20,20,0,0,0,.25,5.24c.64,1.81,2,1.89,3.35,2.13V29.4a13.36,13.36,0,0,0,2.23,0V26.67c2.21,0,4.2,0,4.92-2.25a5.38,5.38,0,0,0,.18-2.2,3.18,3.18,0,0,0-2.49-3,2.79,2.79,0,0,0-2.74,1l-.16.14Z"/><path class="cls-3" d="M26.34,21c-.95.35-1,1.28-1,2.42,0,.29,0,.58,0,.87s-.1.57.19.62a6.55,6.55,0,0,0,1.63-.07c1.73-.56,1.25-4.61-.86-3.84Z"/><path class="cls-3" d="M33.18,22.09h2.61c-.07-2-2.36-1.92-2.61,0Z"/><path class="cls-4" d="M20.68,16.15a1.19,1.19,0,1,1-1.19,1.19,1.19,1.19,0,0,1,1.19-1.19Z"/></g></g></svg>