<svg xmlns="http://www.w3.org/2000/svg" viewBox="0 0 38.69 38.69"><defs><style>.cls-1{fill:#e0040b;}.cls-2{fill:#fff;}</style></defs><title>iconMenu</title><g id="Layer_2" data-name="Layer 2"><g id="Camada_1" data-name="Camada 1"><path class="cls-1" d="M19.35,38.69A19.35,19.35,0,1,1,38.69,19.35,19.37,19.37,0,0,1,19.35,38.69Z"/><path class="cls-2" d="M9.94,16.49a.43.43,0,0,1-.43-.43V9.93a.43.43,0,0,1,.43-.43h6.13a.43.43,0,0,1,0,.86h-5.7v5.7a.43.43,0,0,1-.43.43Z"/><path class="cls-2" d="M17.55,18a.43.43,0,0,1-.3-.13L9.63,10.24a.43.43,0,0,1,.61-.61l7.61,7.62a.43.43,0,0,1-.3.73Z"/><path class="cls-2" d="M28.75,16.49a.43.43,0,0,1-.43-.43v-5.7h-5.7a.43.43,0,0,1,0-.86h6.13a.43.43,0,0,1,.43.43v6.13a.43.43,0,0,1-.43.43Z"/><path class="cls-2" d="M21.15,18a.43.43,0,0,1-.31-.73l7.61-7.62a.43.43,0,1,1,.61.61l-7.61,7.62a.43.43,0,0,1-.3.13Z"/><path class="cls-2" d="M16.06,29.19H9.94a.43.43,0,0,1-.43-.43V22.63a.43.43,0,0,1,.86,0v5.7h5.7a.43.43,0,0,1,0,.86Z"/><path class="cls-2" d="M9.94,29.19a.43.43,0,0,1-.3-.73l7.61-7.62a.43.43,0,0,1,.61.61l-7.61,7.62a.43.43,0,0,1-.3.13Z"/><path class="cls-2" d="M28.75,29.19H22.63a.43.43,0,0,1,0-.86h5.7v-5.7a.43.43,0,0,1,.86,0v6.13a.43.43,0,0,1-.43.43Z"/><path class="cls-2" d="M28.75,29.19a.43.43,0,0,1-.3-.13l-7.61-7.62a.43.43,0,0,1,.61-.61l7.61,7.62a.43.43,0,0,1-.3.73Z"/></g></g></svg>